<?xml version="1.0" standalone="no"?>
<!DOCTYPE svg PUBLIC "-//W3C//DTD SVG 20010904//EN" "http://www.w3.org/TR/2001/REC-SVG-20010904/DTD/svg10.dtd">
<svg
  version="1.0"
  xmlns="http://www.w3.org/2000/svg"
  width="1080.000000pt"
  height="1080.000000pt"
  viewBox="0 0 1080.000000 1080.000000"
  preserveAspectRatio="xMidYMid meet"
>
  <g
    transform="translate(0.000000,1080.000000) scale(0.100000,-0.100000)"
    fill="#000000"
    stroke="none"
  >
    <path
      d="M10134 9530 c-47 -35 -80 -38 -112 -8 l-23 23 -59 -33 c-71 -39 -83
-39 -109 -6 -28 36 -58 27 -127 -39 -61 -60 -66 -81 -28 -122 33 -35 28 -53
-24 -88 -56 -38 -68 -61 -48 -92 21 -32 21 -32 -13 -50 -16 -8 -77 -53 -136
-99 -60 -49 -112 -83 -120 -80 -21 8 -126 149 -134 181 -4 16 -19 34 -34 41
-34 16 -34 32 -2 62 33 31 32 58 -5 108 -42 58 -79 75 -149 68 -31 -4 -73 -6
-93 -6 -31 0 -38 -4 -38 -20 0 -11 -14 -48 -31 -83 -29 -58 -30 -66 -19 -105
6 -24 27 -61 47 -83 41 -45 73 -50 126 -19 l34 20 6 -29 c4 -17 19 -38 37 -51
35 -25 150 -155 150 -170 0 -9 -379 -298 -419 -319 -18 -10 -28 -2 -86 70 -36
45 -68 92 -71 105 -4 14 -19 31 -35 40 -30 15 -36 28 -19 39 23 14 9 57 -36
105 -68 73 -102 91 -179 95 -52 3 -67 0 -72 -11 -3 -9 -1 -20 5 -26 8 -8 8
-17 0 -32 -6 -11 -11 -32 -10 -47 1 -36 43 -117 81 -158 28 -30 35 -33 71 -27
36 6 40 4 40 -15 0 -12 17 -38 38 -58 62 -59 132 -147 132 -166 0 -31 -195
-213 -365 -341 -88 -66 -297 -219 -465 -339 -168 -120 -483 -351 -700 -514
-466 -348 -596 -441 -620 -441 -9 0 -25 10 -36 21 -37 42 -223 189 -317 253
-385 257 -767 329 -1145 215 -99 -30 -294 -130 -402 -207 -117 -83 -383 -344
-508 -501 -51 -63 -107 -125 -124 -138 -45 -33 -126 -55 -195 -53 -32 1 -63 1
-68 1 -19 -2 -44 -56 -47 -100 -2 -38 2 -46 27 -64 153 -109 171 -278 49 -463
-89 -137 -283 -295 -481 -393 -186 -93 -328 -131 -486 -131 -107 0 -171 16
-239 59 -57 36 -90 85 -127 183 l-27 73 -54 -2 c-30 -2 -58 -7 -63 -12 -5 -5
-13 -31 -18 -57 -19 -103 -93 -180 -219 -228 -36 -14 -128 -43 -204 -66 -197
-58 -309 -101 -481 -186 -507 -249 -805 -576 -913 -1003 -25 -99 -27 -121 -27
-316 1 -238 14 -320 86 -539 81 -245 322 -678 466 -836 64 -71 77 -94 63 -119
-5 -11 -19 -23 -30 -26 -41 -13 -18 -82 45 -138 44 -39 76 -49 129 -43 l51 7
77 -88 c159 -182 458 -429 686 -567 305 -184 573 -272 858 -283 395 -15 700
116 1053 451 140 133 396 493 527 741 35 66 78 135 97 153 44 42 130 72 210
72 72 0 90 10 111 61 l15 37 -43 38 c-24 22 -58 48 -76 59 -66 40 -120 180
-120 311 0 280 231 622 550 814 121 73 224 105 335 105 73 0 100 -5 140 -23
61 -28 108 -72 143 -132 41 -72 37 -69 97 -55 72 16 85 28 85 80 0 28 12 65
35 113 42 84 67 102 265 199 431 211 665 382 794 582 235 362 285 733 151
1111 -43 121 -147 326 -224 443 -39 59 -71 112 -71 117 0 4 15 21 33 37 19 15
232 201 473 413 1098 964 1762 1520 1814 1520 12 0 123 -140 138 -173 6 -15
23 -32 37 -39 32 -14 31 -21 -5 -58 -16 -17 -30 -35 -30 -39 0 -5 15 -31 33
-57 53 -79 137 -112 213 -84 19 7 30 7 40 -1 21 -17 47 -3 41 22 -3 12 5 40
19 67 38 70 23 136 -45 210 -33 35 -65 41 -97 17 -31 -23 -51 -18 -57 14 -4
17 -17 36 -30 43 -38 21 -158 168 -149 183 7 14 249 226 310 273 l34 26 30
-34 c16 -19 54 -70 84 -112 31 -43 62 -78 70 -78 23 0 16 -35 -12 -61 -52 -48
-10 -140 81 -174 34 -13 48 -14 85 -4 25 6 62 11 83 11 33 -1 37 1 37 22 0 13
11 44 25 67 42 75 30 148 -35 203 -35 29 -76 34 -106 11 -27 -21 -54 -19 -54
4 0 10 -36 56 -80 101 -44 45 -88 93 -97 107 -16 24 -15 25 15 55 l31 32 20
-25 c19 -24 19 -24 54 -6 19 11 49 32 66 48 18 16 35 29 39 29 4 0 23 -18 44
-41 43 -47 62 -46 115 3 17 17 41 35 54 42 42 21 47 43 16 71 -15 14 -27 28
-27 30 0 3 23 30 50 60 55 61 59 75 31 111 -25 32 -18 53 35 105 47 46 54 66
28 76 -9 3 -28 25 -42 48 -42 65 -118 145 -139 145 -11 0 -37 -13 -59 -30z"
    />
  </g>
</svg>
