<?xml version="1.0" standalone="no"?>
<!DOCTYPE svg PUBLIC "-//W3C//DTD SVG 20010904//EN"
 "http://www.w3.org/TR/2001/REC-SVG-20010904/DTD/svg10.dtd">
<svg version="1.0" xmlns="http://www.w3.org/2000/svg"
 width="2565.000000pt" height="2565.000000pt" viewBox="0 0 2565.000000 2565.000000"
 preserveAspectRatio="xMidYMid meet">
<metadata>
Created by potrace 1.14, written by Peter Selinger 2001-2017
</metadata>
<g transform="translate(0.000000,2565.000000) scale(0.100000,-0.100000)"
fill="#000000" stroke="none">
<path d="M3325 16549 c-229 -37 -514 -285 -570 -499 -7 -26 -12 -90 -11 -143
2 -78 6 -103 25 -140 26 -51 82 -116 123 -141 56 -36 199 -54 231 -28 7 5 24
12 38 15 36 9 142 117 167 171 26 53 37 130 28 189 -5 34 -13 47 -32 56 -35
15 -95 14 -137 -4 -44 -18 -83 -19 -90 -2 -9 23 3 82 21 99 22 22 98 29 148
13 21 -7 75 -20 119 -30 44 -9 88 -21 97 -26 10 -5 34 -11 54 -14 19 -2 50 -9
67 -14 110 -34 163 -41 336 -45 100 -2 184 -5 186 -8 3 -3 -18 -21 -47 -40
-145 -98 -431 -371 -609 -583 -19 -22 -51 -58 -71 -81 -21 -22 -66 -81 -100
-130 -34 -49 -66 -90 -70 -92 -4 -2 -8 -8 -8 -14 0 -6 -11 -26 -25 -44 -14
-18 -25 -35 -25 -37 0 -3 -32 -56 -71 -119 -109 -172 -300 -556 -299 -601 0
-11 -6 -31 -14 -45 -8 -15 -19 -47 -26 -72 -7 -25 -18 -63 -26 -85 -8 -23 -14
-57 -14 -77 0 -20 -4 -39 -9 -42 -22 -14 -35 -172 -35 -441 0 -104 3 -234 7
-287 8 -120 36 -327 47 -348 5 -9 11 -35 15 -59 3 -24 22 -94 41 -155 32 -104
47 -146 80 -223 8 -17 14 -38 14 -47 0 -9 3 -16 8 -16 4 0 18 -24 31 -52 39
-88 52 -113 82 -154 16 -21 37 -55 48 -74 49 -90 302 -353 416 -434 65 -46
233 -135 267 -141 12 -3 24 -8 27 -13 3 -5 17 -11 31 -14 14 -4 39 -11 55 -17
104 -36 155 -45 320 -58 229 -17 576 1 654 33 18 8 44 14 56 14 13 0 36 7 51
15 16 8 39 15 51 15 12 0 47 11 77 25 30 14 62 25 71 25 8 0 18 6 21 14 3 8
17 16 32 19 33 7 171 87 229 134 23 18 45 33 50 33 5 0 43 36 85 80 79 82 138
162 178 239 25 50 34 44 43 -24 13 -87 90 -248 168 -350 30 -38 63 -83 73
-100 31 -49 117 -123 176 -151 50 -24 65 -27 185 -27 148 -1 162 4 255 82 74
62 188 179 211 216 25 40 25 120 -1 162 -13 21 -31 35 -57 42 -33 9 -40 8 -63
-13 -87 -82 -205 -77 -250 10 -8 16 -17 31 -21 34 -8 7 -37 90 -43 125 -14 72
-18 429 -21 2177 l-3 1858 35 31 c53 46 79 55 100 37 34 -29 84 -37 202 -35
l117 2 -3 -1040 c-1 -572 -4 -1060 -7 -1085 -15 -145 -45 -207 -119 -243 -36
-18 -38 -18 -74 0 -38 18 -58 46 -68 96 -5 25 -8 27 -22 15 -9 -7 -24 -30 -34
-52 -56 -125 123 -226 270 -151 45 22 98 77 162 165 33 46 79 139 79 161 0 9
7 35 14 57 15 42 23 102 31 247 3 44 7 433 10 865 4 784 7 882 26 953 16 62
149 187 246 232 78 37 78 37 218 38 131 1 144 -1 196 -25 78 -37 208 -143 209
-172 0 -5 10 -23 23 -40 57 -77 122 -233 131 -311 16 -137 18 -169 18 -289 -1
-119 -6 -207 -18 -281 -8 -48 -42 -171 -52 -191 -6 -11 -18 -40 -27 -66 -19
-56 -109 -201 -166 -269 -36 -44 -120 -113 -138 -114 -3 -1 -20 -8 -37 -17
-29 -16 -143 -35 -174 -29 -58 10 -92 26 -126 58 -77 74 -81 140 -14 219 22
25 40 49 40 53 0 12 -41 31 -76 35 -67 9 -167 -62 -189 -132 -10 -35 -8 -113
4 -125 6 -6 11 -19 11 -29 0 -27 95 -116 152 -143 45 -21 65 -24 177 -23 144
0 194 12 330 81 93 46 215 152 292 254 24 32 50 62 56 66 7 4 13 13 13 19 0 6
19 43 43 82 43 71 107 213 107 238 0 7 7 26 15 41 29 56 47 222 46 432 -1 129
-4 153 -20 184 -6 11 -11 31 -11 44 0 56 -102 219 -202 324 -97 102 -162 147
-279 194 -80 31 -90 33 -219 34 -165 0 -271 -10 -310 -30 -16 -8 -41 -15 -55
-15 -14 0 -33 -4 -43 -10 -9 -5 -42 -18 -72 -29 -30 -11 -134 -54 -230 -96
-174 -76 -176 -77 -248 -73 -91 4 -107 18 -86 76 17 48 17 75 0 117 -24 57
-55 66 -208 58 -184 -8 -534 -8 -709 2 l-146 7 -34 -30 c-30 -27 -34 -36 -34
-80 1 -62 17 -87 102 -155 89 -72 142 -128 149 -158 4 -13 8 -821 10 -1794 l5
-1771 -118 -115 c-119 -116 -247 -219 -319 -258 -21 -12 -46 -25 -54 -30 -35
-21 -168 -80 -195 -87 -17 -4 -35 -10 -40 -15 -6 -4 -22 -10 -37 -13 -14 -2
-35 -9 -45 -14 -10 -5 -36 -12 -58 -15 -22 -3 -60 -9 -85 -15 -93 -21 -318
-36 -341 -22 -11 8 -11 12 6 24 11 9 27 16 35 16 8 0 23 7 33 15 11 7 27 12
37 10 10 -2 24 3 31 11 6 8 20 14 30 14 11 0 19 4 19 10 0 5 12 13 27 16 34 9
140 77 224 144 145 115 228 214 304 360 21 41 45 86 52 100 7 14 13 32 13 40
0 8 7 34 15 58 26 74 37 335 21 497 -11 120 -57 236 -134 337 -44 58 -151 148
-176 148 -8 0 -16 4 -18 9 -1 5 -41 21 -88 36 -111 35 -276 46 -334 21 -21 -9
-49 -16 -62 -16 -13 0 -24 -4 -24 -10 0 -5 -12 -13 -27 -16 -30 -7 -113 -65
-131 -92 -43 -62 -61 -92 -56 -92 4 0 0 -10 -8 -22 -19 -29 -25 -57 -34 -138
-10 -94 -9 -187 3 -213 6 -12 18 -47 27 -77 15 -54 71 -149 118 -201 34 -38
117 -93 163 -108 47 -15 165 -20 215 -10 19 5 57 13 83 18 26 6 81 26 122 46
41 19 81 35 89 35 8 0 19 8 24 17 9 15 11 15 28 -2 16 -16 19 -34 18 -124 0
-90 -4 -112 -23 -148 -12 -23 -23 -51 -24 -62 -1 -12 -5 -21 -9 -21 -5 0 -13
-12 -18 -26 -21 -55 -147 -194 -233 -259 -88 -65 -136 -95 -152 -95 -7 0 -15
-4 -17 -8 -5 -14 -117 -63 -157 -69 -20 -3 -42 -10 -48 -15 -14 -11 -237 -14
-293 -4 -19 3 -72 25 -117 47 -95 48 -225 162 -296 262 -86 120 -219 419 -234
527 -3 19 -9 40 -14 46 -11 14 -15 30 -29 134 -6 42 -12 85 -14 96 -3 16 -13
97 -22 169 -22 196 -22 631 1 715 2 8 6 36 9 63 15 119 19 143 29 162 6 11 12
36 14 55 2 19 8 39 14 44 5 6 9 24 9 40 0 17 7 44 15 60 8 15 15 38 15 50 0
11 7 30 15 40 8 11 15 30 15 43 0 13 5 23 10 23 6 0 10 9 10 21 0 26 35 108
77 181 18 31 33 63 33 71 0 8 7 20 15 27 8 7 15 21 15 31 0 11 4 19 9 19 5 0
14 13 21 30 7 16 32 58 56 92 24 35 44 68 44 75 0 7 6 16 14 20 7 4 24 24 37
44 28 43 110 152 119 159 3 3 25 30 49 60 60 77 225 244 296 298 33 26 65 51
70 58 6 6 33 26 60 44 28 19 93 62 145 97 52 35 98 63 103 63 6 0 15 6 21 14
6 8 43 31 81 51 39 21 77 43 85 49 8 6 32 20 53 30 20 11 37 22 37 26 0 3 -14
20 -31 38 -30 31 -32 31 -60 16 -17 -8 -39 -12 -50 -9 -19 6 -19 8 -4 32 22
33 13 69 -35 136 -69 96 -161 146 -207 112 -10 -8 -28 -15 -40 -15 -13 0 -23
-4 -23 -9 0 -9 -59 -40 -89 -46 -9 -2 -41 -10 -71 -19 -47 -14 -131 -27 -200
-30 -14 -1 -38 2 -55 7 -16 4 -57 10 -90 14 -33 3 -64 9 -70 13 -5 4 -66 22
-135 40 -123 31 -140 35 -190 44 -103 20 -260 27 -335 15z"/>
<path d="M11960 16489 c-134 -12 -319 -83 -448 -171 -62 -43 -239 -222 -289
-293 -49 -69 -155 -277 -158 -308 -1 -12 -10 -39 -19 -60 -22 -51 -31 -150
-31 -357 0 -195 7 -264 35 -376 18 -73 67 -204 81 -214 3 -3 11 -21 18 -42 39
-121 305 -383 458 -454 166 -75 263 -93 478 -89 189 4 243 10 295 29 139 53
186 70 193 68 4 -1 7 2 7 8 0 5 14 17 31 25 17 9 61 48 99 86 59 60 73 80 90
136 25 83 25 116 -1 171 -21 43 -88 102 -117 102 -12 0 -14 -10 -7 -62 12
-106 9 -150 -13 -194 -43 -85 -174 -174 -307 -209 -201 -52 -462 -12 -630 97
-93 61 -270 234 -319 312 -55 87 -126 243 -126 277 0 11 -5 29 -10 40 -9 15
-5 28 19 62 42 61 166 181 209 203 20 10 51 29 68 41 35 26 136 73 206 97 46
15 330 71 413 81 22 3 51 7 65 10 14 3 36 7 50 9 14 3 48 8 75 11 28 3 63 13
79 21 16 8 39 14 51 14 13 0 36 7 51 15 16 8 37 15 46 15 25 0 180 73 257 121
36 23 83 60 104 83 129 139 144 368 29 420 -38 17 -86 15 -122 -4 -25 -13 -71
-70 -65 -80 2 -4 30 -10 60 -12 31 -3 63 -11 71 -20 8 -8 17 -40 19 -74 4 -48
0 -69 -18 -104 -27 -54 -103 -114 -172 -135 -27 -9 -58 -20 -68 -26 -9 -5 -36
-12 -58 -14 -23 -3 -50 -10 -61 -16 -10 -5 -33 -12 -51 -13 -18 -2 -70 -9
-117 -16 -47 -6 -98 -13 -115 -15 -52 -7 -185 -26 -211 -31 -13 -2 -35 -6 -49
-8 -86 -15 -192 -39 -200 -46 -5 -4 -26 -11 -45 -15 -58 -13 -211 -93 -285
-150 -38 -30 -115 -98 -169 -150 -55 -52 -101 -93 -104 -90 -10 9 0 341 13
440 18 140 81 300 154 392 99 126 260 262 330 280 14 3 49 16 76 28 50 22 149
37 260 38 108 1 226 -47 287 -118 34 -39 14 -125 -44 -198 l-23 -29 24 -19
c35 -29 123 -26 189 7 43 21 55 34 76 77 28 61 33 89 22 137 -22 93 -118 180
-248 224 -64 21 -88 25 -198 32 -52 3 -99 6 -105 8 -5 1 -44 -1 -85 -5z"/>
<path d="M14175 16494 c-5 -1 -59 -5 -120 -8 -156 -7 -239 -21 -346 -57 -110
-37 -299 -125 -299 -139 0 -6 -6 -10 -13 -10 -20 0 -85 -58 -153 -138 -77 -90
-97 -143 -97 -258 0 -73 3 -89 26 -123 30 -45 79 -78 130 -86 105 -17 218 132
161 213 -21 31 -39 28 -54 -9 -16 -37 -65 -62 -93 -47 -48 25 -61 140 -26 211
31 59 154 176 228 215 66 35 173 78 213 86 13 2 64 12 113 21 90 18 284 24
357 11 121 -20 250 -59 268 -82 7 -8 23 -14 36 -14 13 0 24 -4 24 -9 0 -4 19
-21 42 -36 44 -30 178 -162 178 -176 0 -5 13 -29 30 -55 33 -53 63 -140 80
-233 12 -66 16 -213 7 -228 -3 -4 -8 -28 -12 -53 -8 -52 -43 -140 -91 -227
-61 -109 -228 -263 -287 -263 -7 0 -26 13 -42 30 -56 59 -106 74 -245 75 -141
0 -169 -9 -216 -70 -51 -68 -26 -153 58 -196 48 -24 208 -34 292 -18 77 14 94
-4 121 -131 2 -8 10 -46 19 -85 9 -38 24 -103 32 -145 9 -41 20 -79 25 -84 5
-6 9 -19 9 -30 0 -28 67 -170 112 -238 50 -75 153 -176 231 -227 129 -84 331
-127 449 -97 93 25 157 98 136 158 -14 40 -55 70 -92 66 -30 -3 -31 -4 -31
-57 0 -46 -4 -56 -26 -73 -35 -26 -113 -30 -164 -8 -50 21 -136 98 -166 148
-13 20 -29 41 -36 45 -7 4 -13 17 -13 28 0 12 -8 33 -19 47 -23 33 -84 164
-106 228 -41 122 -160 378 -210 454 -17 25 -31 50 -32 56 -1 7 23 26 55 43
118 65 138 81 234 176 127 125 213 252 240 355 35 132 46 200 44 269 -7 164
-38 262 -130 400 -48 72 -81 105 -171 172 -106 78 -125 89 -213 123 -139 54
-218 72 -327 75 -55 2 -102 4 -105 6 -3 1 -9 1 -15 -1z m88 -1478 c117 -42 96
-114 -33 -121 -73 -4 -115 7 -146 36 -19 18 -21 25 -12 49 5 17 21 33 36 39
39 14 111 12 155 -3z"/>
<path d="M9698 16479 c-31 -4 -73 -15 -93 -24 -21 -8 -49 -15 -64 -15 -14 0
-35 -7 -45 -15 -11 -8 -28 -15 -38 -15 -9 0 -48 -14 -85 -31 -148 -68 -350
-148 -383 -152 -74 -8 -160 31 -160 72 0 9 9 27 20 41 11 14 20 30 20 37 0 27
-98 16 -132 -14 -9 -8 -24 -35 -32 -59 -14 -42 -14 -45 12 -96 37 -73 60 -83
207 -85 66 0 125 -1 130 -2 12 -1 12 -1939 1 -2090 -12 -152 -33 -212 -88
-255 -53 -39 -97 -38 -139 3 -20 20 -29 39 -29 61 0 38 -23 38 -52 -1 -48 -64
-23 -138 61 -180 37 -18 54 -21 112 -16 93 8 136 33 205 122 93 118 146 251
159 400 14 153 16 249 21 1030 3 446 6 826 8 845 9 135 199 307 372 338 75 13
226 6 285 -13 27 -9 71 -33 97 -52 59 -45 132 -114 132 -127 0 -5 10 -23 23
-40 31 -41 97 -174 97 -195 0 -10 5 -22 10 -27 31 -31 52 -354 36 -544 -8
-101 -27 -210 -38 -216 -4 -3 -8 -14 -8 -26 0 -36 -80 -210 -137 -298 -67
-103 -156 -192 -220 -220 -60 -26 -157 -47 -202 -43 -79 7 -170 80 -188 151
-9 37 14 96 52 133 41 40 43 51 11 69 -75 39 -203 -17 -236 -104 -14 -38 -15
-125 -1 -139 6 -6 11 -19 11 -30 0 -31 105 -124 167 -147 95 -35 322 -23 407
22 10 5 27 11 37 13 62 12 273 187 346 288 20 29 41 54 45 57 8 6 49 79 104
183 43 84 101 254 108 322 27 236 24 483 -5 501 -5 3 -9 17 -9 32 0 72 -99
223 -229 352 -78 78 -113 104 -181 138 -47 23 -110 48 -140 56 -60 15 -267 18
-362 5z"/>
<path d="M13890 16222 c-8 -3 -42 -26 -75 -53 -60 -47 -218 -149 -232 -149 -5
-1 -21 -11 -36 -24 -34 -28 -33 -58 2 -66 16 -4 28 -16 34 -35 5 -17 11 -368
12 -816 l3 -787 -44 -31 c-47 -34 -70 -66 -55 -75 18 -11 307 -23 424 -17 15
0 27 6 27 13 0 7 -25 38 -56 69 l-57 57 2 724 c1 397 3 786 5 863 3 138 17
225 36 225 6 0 10 8 10 17 0 9 7 24 15 33 19 21 7 59 -15 52z"/>
<path d="M2076 13705 c-15 -8 -34 -15 -41 -15 -18 0 -101 -86 -119 -124 -8
-17 -18 -59 -21 -93 -5 -51 -1 -72 20 -126 15 -36 40 -77 57 -92 74 -66 193
-87 286 -52 58 22 137 92 161 142 7 17 18 40 24 52 11 25 -5 115 -31 168 -18
39 -89 112 -127 132 -42 22 -172 27 -209 8z"/>
<path d="M10918 13595 c-2 -2 -17 -5 -33 -8 -98 -15 -291 -132 -384 -232 -53
-57 -151 -188 -151 -202 0 -6 -6 -16 -13 -20 -15 -10 -95 -117 -104 -140 -4
-9 -13 -25 -22 -34 -15 -19 -65 -106 -102 -179 -13 -25 -35 -65 -50 -90 -15
-25 -30 -56 -34 -70 -4 -14 -13 -32 -20 -40 -7 -8 -29 -46 -50 -85 -21 -38
-44 -75 -51 -81 -8 -6 -14 -18 -14 -26 0 -8 -11 -25 -24 -37 -26 -25 -143 -71
-179 -71 -38 0 -298 -70 -382 -103 -44 -17 -83 -30 -86 -29 -4 0 -15 -8 -24
-18 -10 -11 -23 -20 -28 -20 -6 0 -43 -22 -84 -50 -40 -27 -76 -50 -79 -50 -8
0 -140 -114 -214 -184 -51 -49 -195 -210 -242 -271 -128 -166 -233 -344 -303
-515 -14 -36 -32 -78 -40 -95 -18 -41 -46 -133 -52 -173 -3 -18 -11 -45 -18
-59 l-14 -26 -20 34 c-12 19 -21 40 -21 47 0 8 -18 68 -40 133 -22 66 -40 126
-40 134 0 7 -5 26 -12 42 -6 15 -13 41 -15 58 -3 16 -9 35 -14 41 -5 6 -11 28
-14 49 -2 21 -9 43 -15 49 -5 5 -10 24 -10 41 0 17 -4 35 -10 41 -5 5 -25 75
-44 154 -43 178 -56 229 -67 255 -5 11 -11 36 -13 55 -2 19 -11 51 -19 70 -8
19 -17 55 -20 80 -4 25 -18 95 -32 155 -22 95 -49 242 -71 379 -3 21 -7 48
-10 59 -2 11 -8 57 -14 101 -6 45 -14 96 -17 115 -5 33 0 39 117 152 l122 117
-5 52 c-11 103 -55 119 -267 94 -75 -9 -463 -9 -530 0 -25 3 -88 9 -140 12
-86 5 -101 4 -143 -16 -57 -27 -77 -73 -58 -131 11 -33 85 -119 102 -119 9 0
107 -77 137 -106 16 -16 43 -80 48 -114 2 -14 6 -38 9 -55 2 -16 7 -52 11 -80
3 -27 11 -61 16 -75 6 -14 12 -43 15 -65 3 -22 11 -61 18 -87 7 -25 12 -55 10
-65 -1 -10 4 -33 11 -52 8 -18 14 -45 14 -60 0 -14 9 -55 20 -89 11 -35 20
-76 20 -90 0 -15 11 -72 24 -127 14 -55 34 -140 46 -190 12 -49 30 -124 40
-165 10 -41 35 -145 54 -230 20 -85 42 -166 48 -180 6 -14 13 -38 16 -55 2
-16 8 -38 14 -49 6 -12 13 -34 15 -51 2 -16 20 -82 40 -145 20 -63 36 -118 35
-122 -1 -4 7 -30 18 -58 11 -27 17 -50 15 -50 -3 0 0 -10 7 -22 7 -13 14 -36
16 -52 2 -17 10 -39 18 -50 8 -11 14 -33 14 -48 0 -15 5 -30 10 -33 6 -3 10
-17 10 -29 0 -13 7 -37 15 -52 8 -16 15 -37 15 -46 0 -9 5 -20 10 -23 6 -3 10
-14 10 -23 0 -9 7 -30 15 -46 8 -15 17 -38 19 -50 6 -25 24 -78 43 -123 7 -17
13 -38 13 -47 0 -9 5 -24 10 -34 6 -9 19 -42 29 -72 33 -97 43 -124 73 -200
17 -41 36 -96 43 -121 7 -26 18 -55 23 -65 22 -43 45 -102 57 -144 10 -35 105
-279 154 -395 96 -226 103 -255 57 -255 -22 0 -74 -23 -112 -50 -42 -30 -104
-125 -124 -190 -28 -94 -29 -108 -10 -174 13 -48 27 -69 76 -118 117 -117 250
-149 469 -114 150 25 173 34 201 78 13 21 29 38 34 38 6 0 49 37 96 83 205
197 333 340 360 403 7 17 19 36 27 42 8 7 22 31 33 54 10 24 24 48 30 53 6 6
19 33 29 60 10 28 21 55 25 60 15 20 88 201 95 235 3 19 15 58 26 86 22 56 25
58 187 129 46 20 106 49 135 64 29 16 88 47 132 71 135 72 323 229 387 323 96
140 127 193 178 300 96 201 104 239 105 462 0 105 -2 206 -5 225 -11 86 -137
210 -275 271 -111 49 -284 107 -339 114 -65 8 -77 15 -92 51 -18 42 -17 92 1
124 8 14 14 36 15 51 0 14 4 29 10 35 5 5 15 35 20 65 6 30 24 91 41 135 17
43 40 122 50 174 11 52 23 97 27 100 4 3 9 19 10 35 7 68 77 165 118 165 8 0
14 4 14 8 0 8 134 102 145 102 7 0 79 54 118 89 15 14 27 21 27 17 0 -7 143
99 186 139 15 14 31 25 37 25 15 0 164 148 211 209 225 294 312 471 315 643 2
95 -9 144 -43 193 -32 45 -42 54 -72 66 -26 9 -129 20 -136 14z m-91 -409 c26
-23 28 -28 27 -108 -1 -148 -69 -258 -235 -381 -89 -66 -170 -114 -299 -178
l-95 -47 -9 25 c-6 17 -3 36 7 61 9 21 18 49 21 64 13 57 96 216 142 271 13
16 24 32 24 36 0 10 122 135 190 195 96 85 175 106 227 62z m-1138 -1267 c20
-7 33 -20 37 -36 10 -36 -2 -143 -21 -194 -9 -24 -20 -60 -24 -79 -4 -19 -17
-53 -28 -75 -11 -22 -24 -55 -28 -72 -3 -18 -11 -35 -16 -38 -5 -4 -9 -16 -9
-29 0 -28 -70 -174 -112 -232 -28 -40 -75 -75 -149 -112 -15 -7 -35 -21 -45
-30 -11 -9 -31 -23 -46 -31 -15 -8 -66 -53 -112 -100 -94 -95 -126 -134 -126
-150 0 -6 -4 -11 -10 -11 -14 0 -89 -132 -94 -165 -2 -17 -8 -43 -15 -58 -6
-16 -11 -64 -11 -109 0 -67 3 -84 23 -109 58 -78 91 -109 149 -139 58 -31 65
-32 104 -22 66 18 129 66 173 135 60 91 56 119 -23 172 -81 54 -110 88 -101
122 17 69 96 131 150 117 14 -3 37 -20 51 -37 23 -27 25 -37 23 -107 -2 -68
-9 -141 -23 -228 -3 -15 -10 -63 -16 -107 -7 -44 -14 -89 -16 -100 -2 -11 -7
-40 -10 -65 -3 -25 -12 -55 -20 -67 -8 -12 -14 -32 -14 -44 0 -35 -29 -84 -61
-103 -23 -13 -42 -16 -77 -12 -69 9 -220 50 -234 64 -7 7 -19 12 -28 12 -8 0
-31 10 -50 22 -19 12 -47 29 -61 37 -111 65 -173 126 -254 247 -64 97 -153
270 -162 317 -3 17 -11 38 -16 45 -6 8 -12 71 -13 145 -1 113 2 142 22 206 23
74 145 331 168 354 7 7 19 24 27 38 80 144 188 263 338 371 86 63 319 188 349
188 9 0 42 9 72 21 65 25 76 27 155 35 33 3 76 9 95 14 49 11 53 11 89 -1z
m186 -1184 c67 -14 185 -68 235 -107 24 -19 118 -150 121 -168 0 -3 3 -14 5
-25 7 -29 6 -175 -1 -214 -3 -19 -14 -53 -25 -76 -10 -23 -20 -52 -22 -66 -20
-134 -331 -338 -510 -334 -66 2 -99 20 -118 65 -13 32 -12 42 16 215 3 20 27
247 40 380 3 39 12 88 20 110 8 22 14 54 14 70 0 17 7 41 15 55 8 14 14 37 15
51 0 31 25 56 60 61 22 3 69 -3 135 -17z m-1272 -1355 c32 -25 204 -109 237
-115 14 -2 34 -9 45 -14 11 -5 67 -24 124 -42 122 -39 161 -69 161 -122 0 -19
-7 -48 -15 -63 -8 -16 -15 -37 -15 -47 0 -25 -90 -203 -140 -276 -24 -34 -74
-96 -113 -137 l-71 -75 -90 2 c-104 2 -116 5 -116 28 0 9 -10 32 -21 51 -26
42 -27 65 -33 513 -4 341 -5 337 47 297z"/>
<path d="M17380 12715 c-145 -32 -219 -61 -325 -126 -110 -69 -257 -209 -335
-319 -54 -78 -160 -285 -160 -314 0 -12 -6 -30 -13 -41 -20 -29 -26 -59 -34
-160 -22 -276 2 -548 59 -690 11 -27 26 -65 33 -84 7 -18 17 -36 22 -40 5 -3
13 -19 17 -35 4 -16 28 -59 54 -95 140 -196 348 -358 522 -407 147 -41 172
-44 350 -39 233 5 306 17 392 61 14 8 33 14 41 14 9 0 17 5 19 10 2 6 14 12
27 15 33 6 60 26 136 97 74 69 99 110 119 195 10 44 10 67 2 96 -14 47 -57
102 -98 123 -45 24 -54 8 -40 -69 17 -91 15 -111 -13 -167 -64 -127 -220 -213
-430 -237 -78 -10 -282 13 -323 36 -13 7 -26 10 -29 7 -5 -5 -36 8 -83 35 -8
5 -22 12 -30 16 -89 39 -294 234 -368 348 -66 102 -125 249 -125 308 1 42 7
54 47 102 166 194 399 311 696 351 19 2 42 6 50 9 8 2 38 7 65 10 28 4 66 10
85 15 19 5 58 11 85 14 87 10 223 44 264 66 12 6 21 8 21 6 0 -14 196 75 280
128 155 97 238 282 190 426 -22 67 -101 102 -173 77 -28 -9 -89 -75 -82 -87 3
-4 30 -10 61 -12 79 -7 94 -26 91 -118 -4 -81 -26 -121 -98 -170 -49 -33 -156
-75 -217 -85 -18 -3 -41 -9 -51 -14 -13 -8 -143 -29 -286 -46 -77 -10 -132
-18 -150 -21 -11 -2 -40 -7 -65 -10 -25 -3 -63 -10 -85 -14 -22 -5 -56 -12
-75 -15 -53 -9 -176 -53 -265 -94 -98 -46 -179 -107 -308 -231 -55 -52 -106
-99 -114 -104 -13 -7 -14 18 -9 210 7 239 7 240 35 334 34 113 65 184 110 255
46 73 185 216 234 242 15 7 36 21 47 30 29 25 180 84 229 90 25 2 70 8 98 12
80 12 126 7 223 -22 106 -33 179 -112 160 -176 -11 -39 -36 -85 -54 -100 -23
-19 -20 -58 5 -71 54 -29 173 -5 223 45 39 39 68 118 60 165 -21 134 -183 247
-386 270 -115 13 -255 11 -328 -5z"/>
<path d="M19366 12684 c-53 -28 -109 -35 -191 -22 -236 37 -299 28 -383 -53
-44 -42 -75 -114 -68 -157 6 -42 50 -100 84 -113 64 -25 153 73 121 134 -10
18 -12 18 -40 -9 -31 -30 -38 -28 -62 20 -18 34 -6 80 24 97 35 18 105 22 135
6 16 -8 63 -22 104 -31 154 -36 159 -40 117 -99 -25 -37 -40 -60 -65 -101 -9
-16 -25 -36 -34 -45 -10 -8 -18 -20 -18 -25 0 -5 -36 -81 -80 -168 -44 -88
-80 -169 -80 -180 0 -10 -7 -33 -16 -49 -8 -17 -13 -33 -10 -36 3 -3 -3 -24
-12 -47 -27 -65 -21 -442 8 -571 43 -185 182 -383 319 -453 106 -55 157 -67
276 -66 91 0 119 4 159 22 27 12 55 22 62 22 8 0 14 4 14 8 0 5 15 15 33 24
66 32 237 187 237 215 0 12 41 46 47 39 2 -1 -3 -22 -11 -44 -9 -23 -13 -42
-11 -42 5 0 -22 -71 -58 -150 -13 -30 -39 -89 -57 -130 -42 -95 -92 -189 -141
-264 -22 -32 -39 -62 -39 -67 0 -20 -197 -212 -240 -234 -104 -52 -154 -57
-247 -28 -64 20 -107 63 -123 123 -6 22 -15 40 -21 40 -32 0 -48 -24 -65 -94
-16 -71 -16 -77 0 -120 34 -88 88 -130 211 -164 82 -23 141 -20 228 9 34 12
67 22 73 23 5 1 23 12 38 24 16 12 32 22 36 22 7 0 119 111 161 160 48 56 104
149 175 287 40 81 72 149 69 151 -3 3 0 11 6 18 19 23 105 277 154 454 13 48
56 227 80 340 20 91 50 247 70 363 26 152 29 169 45 292 6 44 12 91 15 105 2
14 6 41 9 60 2 19 8 58 12 85 3 28 8 59 11 70 2 11 6 38 9 60 9 71 44 189 69
232 13 24 20 45 17 47 -12 7 -401 0 -409 -8 -4 -4 -3 -10 3 -14 18 -11 63
-108 91 -191 23 -70 25 -91 25 -276 0 -110 -3 -247 -7 -305 -8 -130 -42 -334
-55 -338 -6 -2 -10 -18 -10 -35 -1 -18 -7 -43 -15 -57 -8 -14 -14 -35 -15 -46
0 -12 -6 -27 -13 -33 -8 -6 -19 -30 -26 -52 -7 -23 -25 -61 -39 -83 -15 -23
-29 -46 -32 -53 -11 -26 -117 -138 -164 -173 -28 -21 -81 -50 -117 -64 -55
-22 -81 -26 -166 -26 -95 0 -104 2 -172 36 -75 37 -201 150 -201 179 0 9 -7
18 -15 21 -8 4 -15 17 -15 29 0 13 -4 25 -8 27 -13 5 -51 129 -58 184 -3 27
-7 60 -10 74 -6 32 -6 347 0 380 2 14 7 50 10 80 9 77 16 113 25 125 5 5 12
28 15 49 8 43 89 234 121 283 11 17 39 62 63 100 23 37 62 91 87 118 46 52 53
73 33 93 -17 17 -27 15 -82 -14z"/>
<path d="M12010 12669 c-19 -5 -51 -11 -70 -14 -47 -8 -133 -35 -144 -46 -6
-5 -22 -9 -37 -9 -25 0 -277 -121 -289 -139 -3 -4 -15 -13 -26 -19 -69 -36
-294 -245 -373 -345 -28 -36 -59 -68 -69 -72 -16 -7 -123 -12 -327 -15 -134
-2 -215 -23 -341 -85 -124 -61 -175 -105 -209 -177 -30 -64 -34 -182 -8 -235
22 -46 43 -73 60 -73 6 0 19 -10 27 -21 14 -20 21 -21 101 -17 98 6 151 32
180 90 35 68 37 158 4 158 -5 0 -9 -8 -9 -18 0 -23 -25 -46 -66 -59 -41 -14
-79 7 -99 54 -19 46 -19 55 5 111 24 53 80 101 150 127 25 9 54 21 65 26 11 4
36 10 55 13 19 3 58 8 85 12 106 16 241 3 240 -22 -1 -26 -18 -74 -26 -74 -5
0 -9 -8 -9 -19 0 -10 -7 -24 -15 -31 -8 -7 -15 -20 -15 -29 0 -9 -4 -21 -8
-26 -4 -6 -16 -37 -26 -70 -10 -33 -26 -80 -36 -105 -10 -25 -21 -65 -26 -90
-4 -25 -8 -47 -9 -50 -8 -36 -15 -71 -19 -100 -3 -19 -8 -44 -11 -55 -2 -11
-8 -36 -13 -55 -11 -47 -13 -551 -2 -592 5 -18 11 -46 14 -63 11 -75 19 -121
21 -135 1 -8 6 -44 10 -80 4 -36 9 -72 10 -81 4 -21 14 -102 20 -163 10 -106
24 -186 32 -186 2 0 23 13 46 28 96 65 127 82 220 118 67 27 97 43 95 53 -2 8
-32 34 -68 59 -36 24 -80 58 -98 75 -35 34 -90 121 -95 153 -2 10 -8 29 -15
41 -7 12 -12 29 -12 38 0 9 -7 29 -15 45 -21 41 -29 181 -28 490 1 326 10 374
114 640 46 115 72 170 81 170 4 0 8 11 8 25 0 31 37 42 83 24 85 -33 275 -130
292 -149 10 -11 24 -20 31 -20 23 0 253 -230 298 -299 25 -37 70 -118 102
-181 76 -154 110 -286 121 -470 7 -142 -3 -175 -74 -244 -32 -31 -54 -59 -49
-63 9 -9 407 -13 450 -4 l28 6 -69 65 -69 65 2 885 c1 487 5 920 8 963 9 122
43 217 90 249 6 4 7 11 2 15 -10 11 -232 12 -276 2z m-59 -156 c10 -220 14
-1201 6 -1210 -8 -7 -30 16 -51 52 -18 32 -51 79 -94 135 -57 74 -220 228
-294 278 -43 29 -80 52 -83 52 -4 0 -21 11 -38 24 -18 14 -57 34 -87 46 -30
12 -57 25 -60 28 -3 4 -25 14 -49 22 -71 24 -72 37 -9 116 98 122 232 242 358
320 97 60 258 136 302 142 21 2 41 9 44 13 3 5 16 9 30 9 19 0 24 -5 25 -27z"/>
<path d="M12835 12670 l-30 -6 63 -59 64 -59 -4 -786 -4 -785 -27 -82 c-36
-107 -75 -170 -169 -268 -43 -45 -78 -88 -78 -97 0 -9 14 -21 30 -28 17 -7 54
-35 82 -61 55 -52 77 -59 98 -33 18 21 91 63 132 75 115 34 286 16 495 -51 70
-23 146 -47 169 -55 22 -7 93 -13 157 -14 127 -2 218 18 309 68 93 52 229 205
250 281 4 14 11 43 17 65 6 22 9 99 7 170 -3 144 -16 189 -82 292 -49 76 -105
126 -192 170 -70 35 -77 37 -202 41 -128 4 -129 4 -195 -27 -73 -34 -144 -100
-178 -166 -49 -96 -3 -259 89 -316 47 -29 171 -36 217 -13 40 21 86 75 87 102
0 21 -3 22 -56 17 -97 -8 -124 20 -124 130 0 54 27 89 93 119 68 32 181 30
246 -3 57 -30 125 -103 159 -171 33 -69 32 -62 33 -206 1 -93 -3 -129 -15
-153 -9 -17 -16 -34 -15 -37 1 -3 -18 -30 -42 -60 -30 -36 -64 -64 -106 -85
-59 -30 -69 -32 -171 -33 -113 0 -125 2 -302 60 -192 62 -245 73 -369 73 -80
0 -123 -5 -142 -15 -16 -8 -37 -14 -48 -14 -11 0 -54 -18 -95 -39 -42 -22 -76
-36 -76 -32 0 4 16 26 35 48 19 23 35 44 35 48 0 3 11 21 25 39 14 18 25 37
25 43 0 5 9 18 20 28 11 10 20 24 20 32 0 8 9 31 20 52 10 21 21 50 24 63 2
14 11 45 19 69 20 59 26 185 32 729 6 517 13 796 21 825 3 11 27 39 52 62 26
22 43 45 39 50 -10 9 -398 13 -442 3z"/>
<path d="M14755 12670 l-30 -6 63 -59 63 -59 -4 -771 c-3 -423 -7 -784 -9
-801 -9 -57 -49 -164 -81 -216 -18 -29 -69 -91 -114 -138 -47 -49 -79 -90 -75
-96 4 -6 21 -19 39 -28 18 -9 53 -36 80 -61 50 -48 72 -55 93 -29 18 21 91 63
132 75 59 17 173 22 249 10 118 -19 179 -34 179 -43 0 -4 7 -8 16 -8 9 0 75
-18 146 -41 125 -39 134 -40 251 -38 129 2 181 15 292 72 78 40 232 213 248
277 3 14 10 43 16 65 6 22 9 99 7 170 -3 109 -8 140 -27 185 -56 134 -134 221
-245 277 -74 36 -78 37 -207 40 -128 3 -134 2 -193 -26 -70 -33 -144 -102
-175 -164 -54 -104 -3 -269 98 -322 34 -18 56 -22 121 -21 67 2 83 5 109 26
38 32 73 84 65 97 -4 6 -38 10 -75 9 -86 -1 -103 16 -106 108 -2 75 17 106 88
139 66 31 188 30 250 -2 61 -32 127 -104 162 -179 28 -59 30 -70 30 -183 1
-100 -3 -132 -21 -179 -27 -72 -96 -144 -170 -178 -48 -22 -69 -25 -166 -25
-61 0 -124 5 -140 11 -16 6 -40 13 -54 15 -14 2 -32 7 -40 10 -27 11 -112 39
-132 42 -11 3 -25 8 -32 14 -6 5 -27 11 -46 14 -19 3 -50 10 -67 16 -18 5 -84
10 -145 9 -126 0 -216 -22 -315 -78 -29 -17 -53 -26 -53 -22 0 5 15 26 33 48
35 44 47 61 77 117 12 21 27 40 33 43 7 2 13 13 14 23 1 10 11 38 22 63 12 24
23 54 25 65 3 11 11 40 19 65 20 57 26 197 32 748 6 531 12 772 21 805 3 13
26 41 51 61 69 57 53 62 -180 61 -106 0 -205 -3 -222 -7z"/>
<path d="M2343 12469 c-52 -10 -88 -29 -134 -71 -36 -34 -85 -98 -74 -98 3 0
-2 -15 -11 -32 -24 -46 -19 -89 16 -162 49 -104 124 -160 227 -173 42 -4 59
-1 116 27 152 73 214 193 168 325 -49 140 -165 209 -308 184z"/>
<path d="M10875 9342 c-32 -5 -130 -34 -135 -41 -3 -3 -18 -13 -35 -21 -42
-22 -100 -102 -136 -190 -26 -60 -32 -91 -34 -155 -3 -94 9 -182 32 -234 9
-20 17 -42 19 -50 3 -14 29 -45 79 -93 73 -71 206 -100 330 -73 123 26 155 52
155 126 0 67 -14 75 -84 44 -143 -63 -257 -30 -317 92 -46 93 -28 291 34 375
58 79 208 91 301 25 43 -30 61 -14 60 52 -1 42 -7 58 -28 79 -42 45 -162 77
-241 64z"/>
<path d="M18570 9342 c-19 -2 -39 -7 -45 -12 -5 -4 -26 -11 -45 -15 -82 -17
-200 -145 -213 -231 -3 -17 -10 -41 -17 -53 -15 -29 -11 -206 7 -286 18 -78
73 -174 115 -201 74 -47 148 -67 253 -68 87 0 111 3 178 28 88 33 128 70 177
167 43 83 57 153 55 260 -3 135 -41 246 -108 316 -46 49 -156 91 -247 95 -41
2 -91 2 -110 0z m159 -167 c58 -29 74 -47 100 -113 16 -40 21 -75 21 -146 0
-112 -19 -180 -67 -236 -45 -53 -79 -60 -225 -51 -26 2 -97 70 -105 100 -3 14
-10 32 -16 39 -15 19 -14 259 1 274 7 7 12 19 12 28 0 23 68 88 121 115 52 27
91 24 158 -10z"/>
<path d="M20184 9332 c-124 -36 -177 -82 -240 -208 -42 -86 -45 -97 -51 -195
-4 -71 -1 -118 7 -149 8 -25 15 -51 16 -58 14 -73 109 -181 191 -219 71 -33
180 -38 269 -13 81 22 115 46 130 91 21 61 -18 119 -56 84 -9 -8 -23 -15 -31
-15 -8 0 -20 -5 -25 -10 -17 -17 -95 -19 -154 -4 -41 11 -65 24 -92 53 -97
102 -91 343 11 449 43 44 67 51 158 46 60 -3 89 -12 140 -44 34 -22 48 -1 45
68 -1 49 -6 60 -29 79 -60 49 -202 71 -289 45z"/>
<path d="M11505 9328 c-140 -50 -202 -113 -254 -257 -34 -95 -32 -248 5 -366
34 -107 108 -179 219 -216 67 -22 229 -16 300 11 126 48 181 110 230 260 27
81 24 244 -4 328 -35 103 -105 202 -143 202 -10 0 -18 4 -18 9 0 10 -17 17
-62 27 -48 11 -244 13 -273 2z m199 -143 c43 -18 88 -63 111 -112 23 -47 30
-249 10 -286 -6 -13 -15 -36 -19 -50 -8 -33 -79 -107 -103 -108 -152 -10 -181
-3 -226 54 -57 73 -62 90 -62 216 0 90 5 127 19 164 20 50 86 117 116 117 9 0
25 6 36 14 21 16 65 13 118 -9z"/>
<path d="M16796 9333 c-1 -1 -48 -3 -105 -4 -129 -2 -137 -4 -151 -40 -16 -36
2 -85 34 -95 11 -4 59 -8 106 -9 l85 -1 5 -105 c3 -57 5 -211 5 -341 0 -152 4
-238 10 -239 54 -3 156 -1 161 4 3 3 7 154 9 337 1 182 6 334 9 337 4 4 44 7
89 8 94 1 126 9 128 33 4 49 0 85 -10 95 -8 8 -74 14 -192 17 -100 3 -182 4
-183 3z"/>
<path d="M20708 9335 c-5 -5 -44 -13 -69 -14 -14 -1 -15 -42 -12 -408 2 -224
6 -409 8 -411 2 -2 39 -6 83 -9 l78 -4 3 123 c1 68 3 141 3 163 0 73 -6 70
142 73 112 3 136 0 150 -13 20 -20 18 -9 22 -185 1 -80 3 -148 3 -152 1 -5 36
-8 79 -8 l79 0 -1 411 -1 412 -25 9 c-13 5 -47 8 -75 6 l-50 -3 -2 -40 c-1
-22 -3 -95 -4 -162 l-3 -123 -40 -1 c-109 -1 -270 2 -274 6 -2 2 -5 70 -6 150
-2 115 -5 149 -17 161 -16 15 -62 28 -71 19z"/>
<path d="M22243 9331 c-58 -15 -124 -61 -153 -108 -82 -129 -23 -272 150 -362
104 -54 148 -85 154 -106 18 -64 -7 -118 -60 -131 -45 -11 -147 2 -212 29 -34
13 -65 21 -68 16 -3 -5 -5 -32 -6 -60 0 -64 22 -90 100 -114 85 -27 250 -21
297 12 32 21 115 105 127 126 10 20 13 131 4 174 -15 71 -77 128 -208 191 -96
46 -128 78 -128 128 0 78 110 110 206 59 26 -14 53 -25 59 -25 20 0 36 26 37
60 2 76 -53 112 -182 116 -47 2 -99 -1 -117 -5z"/>
<path d="M22873 9333 c-5 -1 -52 -3 -107 -5 -83 -3 -100 -7 -112 -23 -19 -26
-17 -69 5 -96 16 -20 28 -23 107 -25 49 -1 94 -2 100 -3 7 -1 11 -89 13 -273
4 -419 4 -408 18 -409 7 0 33 -1 58 -1 25 0 58 1 74 1 l29 1 2 198 c1 108 2
261 3 340 1 121 3 142 16 143 9 0 53 1 98 3 97 3 113 13 113 70 0 70 -1 70
-172 74 -84 1 -172 3 -195 5 -24 1 -46 1 -50 0z"/>
<path d="M12220 9321 c-43 -12 -47 -54 -45 -448 1 -200 5 -366 8 -370 7 -6
147 -7 153 0 1 1 5 139 8 306 3 190 9 308 16 315 7 7 10 2 10 -17 0 -15 12
-55 26 -89 14 -34 28 -71 30 -82 2 -12 8 -30 12 -41 14 -32 33 -87 43 -125 15
-58 88 -253 100 -265 5 -5 41 -11 80 -12 63 -2 71 0 85 22 9 14 20 39 24 57 8
29 49 146 67 188 4 8 12 33 19 55 27 84 63 184 83 228 12 25 21 56 21 69 1 21
1 21 11 5 7 -12 13 -133 16 -315 3 -164 7 -299 9 -301 2 -2 36 -4 76 -5 l72
-1 6 31 c13 62 1 776 -13 790 -4 4 -152 8 -195 5 -30 -1 -78 -52 -91 -94 -5
-18 -30 -86 -56 -152 -26 -66 -60 -156 -76 -200 -16 -43 -37 -88 -48 -98 -18
-19 -19 -18 -36 34 -10 30 -23 65 -30 79 -7 14 -15 39 -18 55 -3 17 -12 46
-20 65 -9 19 -28 69 -43 110 -35 97 -67 160 -91 183 -15 13 -41 18 -104 21
-46 2 -95 0 -109 -3z"/>
<path d="M13377 9319 c-8 -5 -18 -30 -22 -56 -8 -51 -8 -753 0 -761 6 -6 144
-6 150 0 3 2 7 128 10 279 3 151 7 289 9 307 4 35 15 55 17 31 4 -50 11 -73
33 -118 15 -28 24 -51 22 -51 -3 0 16 -57 47 -140 3 -8 8 -26 10 -40 6 -29 59
-177 83 -232 15 -33 22 -38 61 -44 54 -8 113 1 125 18 4 7 13 31 19 53 5 22
16 54 23 70 8 17 28 73 46 125 18 52 38 106 45 120 7 14 16 41 20 60 4 19 18
58 31 87 13 28 24 61 24 72 0 28 20 37 21 9 0 -13 2 -54 4 -93 2 -38 5 -170 6
-292 3 -192 5 -223 19 -224 106 -4 140 -2 143 6 4 11 1 597 -3 723 -2 45 -6
85 -10 87 -8 5 -134 9 -192 6 -40 -2 -71 -41 -108 -139 -18 -48 -53 -136 -77
-195 -23 -59 -43 -114 -43 -121 0 -22 -40 -106 -51 -106 -5 0 -13 10 -18 23
-22 56 -59 156 -73 197 -9 25 -22 61 -29 80 -84 230 -89 240 -137 255 -34 10
-188 13 -205 4z"/>
<path d="M14541 9321 c-19 -12 -21 -40 -22 -238 -1 -196 8 -371 22 -423 9 -36
49 -85 106 -132 58 -47 203 -68 306 -44 121 28 177 70 219 161 21 48 22 62 23
316 0 146 -2 289 -3 317 l-4 51 -61 -3 c-34 -2 -69 -4 -77 -5 -13 -1 -15 -39
-16 -274 -1 -291 -6 -333 -49 -379 -57 -61 -168 -62 -235 -2 -51 46 -57 88
-59 384 -2 278 -3 280 -84 280 -28 0 -58 -4 -66 -9z"/>
<path d="M15438 9322 c-10 -2 -22 -18 -27 -35 -5 -18 -8 -202 -8 -411 l2 -379
70 -4 70 -4 0 248 c0 283 3 363 15 363 5 0 16 -21 26 -47 10 -27 30 -68 45
-93 14 -25 56 -102 93 -172 37 -70 71 -130 76 -133 6 -4 10 -17 10 -30 0 -12
7 -25 15 -29 8 -3 15 -12 15 -19 0 -8 13 -29 29 -47 26 -30 34 -33 97 -37 38
-3 81 0 96 6 l28 10 -3 408 -2 408 -52 3 c-91 6 -88 15 -89 -240 -3 -349 -2
-335 -18 -318 -8 8 -48 83 -89 165 -42 83 -88 168 -102 190 -15 21 -28 47 -30
56 -7 33 -69 118 -95 129 -26 11 -142 19 -172 12z"/>
<path d="M16300 9320 c-13 -8 -15 -66 -16 -415 -1 -223 2 -405 5 -406 3 0 41
-3 84 -5 l77 -5 0 393 c-1 290 -4 400 -13 418 -11 21 -20 25 -67 28 -30 1 -62
-2 -70 -8z"/>
<path d="M17238 9320 c-15 -9 -16 -15 -4 -54 8 -25 53 -119 100 -211 128 -245
127 -244 130 -415 l2 -145 79 -3 80 -3 1 157 c1 86 6 159 11 163 5 3 17 27 27
53 9 26 28 63 42 83 13 20 24 44 24 54 0 11 7 22 16 25 9 4 14 9 11 12 -6 6
62 146 76 155 5 4 7 11 3 17 -3 6 0 17 8 25 8 8 18 30 21 49 6 32 4 36 -19 40
-86 17 -166 -9 -166 -52 0 -10 -6 -23 -14 -29 -8 -7 -17 -24 -21 -39 -3 -15
-22 -60 -41 -100 -19 -41 -34 -82 -34 -93 0 -22 -13 -25 -27 -6 -5 6 -31 59
-57 117 -72 155 -75 163 -90 183 -17 21 -131 34 -158 17z"/>
<path d="M19211 9311 c-15 -15 -21 -35 -22 -68 -3 -114 2 -738 6 -742 3 -2 40
-6 83 -8 l77 -4 3 156 c1 86 7 165 12 175 9 18 14 18 56 5 25 -7 54 -21 64
-30 29 -26 130 -244 130 -279 0 -18 32 -26 105 -26 74 0 86 7 79 45 -7 40
-127 285 -153 312 -12 12 -21 26 -21 31 0 4 20 24 45 42 57 43 76 79 80 152 6
107 -23 171 -100 217 -39 24 -75 29 -266 37 -151 6 -158 5 -178 -15z m300
-131 c51 -14 61 -31 63 -99 1 -88 -19 -104 -150 -118 -63 -6 -64 -3 -65 121 0
72 3 93 16 102 17 13 76 10 136 -6z"/>
<path d="M21513 9317 c-13 -5 -23 -15 -24 -21 0 -6 -2 -20 -5 -31 -12 -55 -6
-736 7 -756 6 -11 56 -15 244 -17 l235 -3 0 64 c0 43 -4 66 -12 69 -7 2 -79 3
-161 3 l-147 -2 3 116 c3 90 7 116 18 118 8 1 62 3 121 5 59 2 112 8 118 14
17 17 20 77 5 100 -14 22 -5 21 -218 23 l-48 1 5 91 c2 50 6 93 9 95 2 3 69 8
148 11 79 3 146 7 148 9 10 9 7 114 -3 115 -66 8 -426 5 -443 -4z"/>
<path d="M23429 9318 c-8 -7 -18 -22 -22 -32 -4 -11 -7 -155 -7 -320 2 -417 3
-466 9 -467 3 0 41 -3 84 -5 l77 -5 0 153 c0 192 2 201 44 192 95 -20 124 -59
211 -293 15 -42 32 -49 107 -50 93 -1 103 10 72 85 -32 78 -116 239 -141 272
l-25 34 22 15 c41 29 91 76 86 81 -3 2 1 14 9 26 20 28 20 157 0 195 -23 45
-91 98 -143 111 -71 18 -363 24 -383 8z m309 -144 c48 -20 65 -82 41 -152 -12
-36 -42 -49 -133 -58 -73 -8 -72 -10 -75 102 -2 86 5 122 27 127 27 6 104 -4
140 -19z"/>
<path d="M24375 9320 c-33 -13 -35 -17 -95 -180 -7 -19 -15 -47 -17 -63 -3
-15 -9 -30 -14 -33 -5 -3 -9 -15 -9 -28 0 -12 -7 -31 -15 -42 -8 -10 -15 -28
-15 -39 0 -11 -6 -29 -13 -40 -7 -11 -14 -31 -15 -44 0 -13 -5 -27 -10 -30 -5
-3 -12 -23 -16 -44 -4 -21 -16 -55 -26 -75 -11 -21 -21 -49 -24 -64 -2 -14 -9
-36 -16 -48 -6 -11 -12 -39 -13 -60 l-3 -40 61 0 c95 0 98 2 123 83 12 40 26
78 31 86 7 11 44 15 163 19 l153 4 25 -78 c32 -104 43 -114 128 -114 97 0 99
3 67 91 -15 41 -34 97 -42 124 -8 28 -22 63 -30 78 -8 16 -12 31 -9 34 3 3 -4
23 -14 44 -11 21 -20 45 -20 54 0 8 -5 25 -12 38 -26 51 -30 61 -34 86 -2 14
-8 35 -13 46 -5 11 -16 40 -24 65 -46 141 -59 168 -80 174 -32 8 -149 6 -172
-4z m117 -280 c15 -46 37 -114 47 -151 l19 -67 -22 -5 c-11 -3 -59 -5 -106 -4
-83 2 -85 3 -86 27 -1 14 3 34 9 45 5 11 14 33 18 50 8 34 27 89 41 120 8 19
15 46 17 68 1 5 8 7 18 5 11 -2 26 -32 45 -88z"/>
</g>
</svg>
