<?xml version="1.0" standalone="no"?>
<!DOCTYPE svg PUBLIC "-//W3C//DTD SVG 20010904//EN" "http://www.w3.org/TR/2001/REC-SVG-20010904/DTD/svg10.dtd">
<svg
  version="1.0"
  xmlns="http://www.w3.org/2000/svg"
  width="1924.000000pt"
  height="926.000000pt"
  viewBox="0 0 1924.000000 926.000000"
  preserveAspectRatio="xMidYMid meet"
>
  <metadata>
    Created by potrace 1.16, written by Peter Selinger 2001-2019
  </metadata>
  <g
    transform="translate(0.000000,926.000000) scale(0.100000,-0.100000)"
    fill="#000000"
    stroke="none"
  >
    <path
      d="M2495 7423 c-131 -17 -325 -160 -392 -288 -42 -82 -46 -96 -46 -177
-1 -70 3 -90 23 -128 31 -56 72 -97 118 -116 39 -16 138 -19 147 -4 3 6 14 10
24 10 25 0 102 77 129 128 27 54 31 154 7 179 -18 17 -89 20 -108 5 -12 -10
-40 -15 -64 -13 -20 2 -16 71 5 87 20 16 108 19 117 4 3 -5 21 -10 40 -10 19
0 37 -4 40 -10 3 -5 21 -10 40 -10 19 0 37 -4 40 -10 3 -5 21 -10 40 -10 19 0
37 -4 40 -10 3 -5 21 -10 39 -10 17 0 37 -5 44 -12 8 -8 60 -12 167 -12 85 -1
155 -3 155 -6 0 -3 -13 -14 -30 -23 -16 -10 -35 -23 -42 -30 -7 -7 -29 -24
-48 -37 -19 -14 -53 -43 -76 -65 -22 -22 -52 -49 -65 -61 -38 -33 -190 -195
-239 -254 -25 -30 -56 -66 -70 -80 -14 -14 -31 -37 -39 -52 -8 -16 -18 -28
-21 -28 -4 0 -13 -13 -20 -30 -7 -16 -16 -30 -20 -30 -4 0 -13 -13 -20 -30 -7
-16 -16 -30 -21 -30 -5 0 -9 -6 -9 -13 0 -7 -8 -22 -17 -33 -17 -19 -24 -31
-55 -86 -7 -13 -15 -25 -18 -28 -13 -13 -122 -227 -155 -305 -9 -22 -21 -48
-26 -57 -5 -10 -9 -27 -9 -37 0 -11 -4 -23 -10 -26 -5 -3 -10 -17 -10 -30 0
-13 -4 -27 -10 -30 -5 -3 -10 -19 -10 -35 0 -16 -4 -32 -10 -35 -5 -3 -10 -24
-10 -45 0 -21 -4 -41 -9 -44 -26 -17 -35 -442 -12 -616 7 -52 15 -115 18 -140
3 -25 9 -49 14 -54 5 -6 9 -21 9 -35 0 -22 10 -60 30 -116 4 -11 13 -38 19
-60 13 -41 27 -77 42 -107 5 -10 9 -25 9 -33 0 -8 5 -15 10 -15 6 0 10 -9 10
-20 0 -11 5 -20 10 -20 6 0 10 -7 10 -15 0 -14 18 -53 30 -65 3 -3 11 -17 19
-32 8 -16 18 -28 23 -28 4 0 8 -5 8 -11 0 -36 214 -270 300 -329 19 -13 37
-27 40 -30 5 -5 80 -46 113 -62 9 -4 26 -13 37 -18 11 -6 27 -10 35 -10 8 0
15 -4 15 -10 0 -5 11 -10 24 -10 14 0 28 -4 31 -10 3 -6 19 -10 34 -10 15 0
31 -4 37 -9 11 -11 59 -18 209 -30 138 -12 446 8 469 30 6 5 22 9 37 9 15 0
31 5 34 10 3 6 17 10 31 10 13 0 33 5 44 10 11 6 29 15 40 20 11 6 27 10 35
10 8 0 15 5 15 10 0 6 7 10 15 10 14 0 53 18 65 30 3 3 25 16 50 29 25 14 56
35 70 48 14 13 28 23 32 23 11 0 101 91 138 141 19 25 44 64 55 87 23 48 35
53 35 15 0 -15 5 -43 11 -62 13 -39 70 -163 79 -171 3 -3 17 -21 30 -40 14
-19 32 -44 42 -54 10 -11 18 -24 18 -30 0 -16 111 -116 129 -116 10 0 22 -5
28 -11 6 -6 54 -11 114 -12 89 0 109 3 141 21 43 24 200 176 217 209 19 37 14
100 -11 128 -21 24 -72 35 -80 17 -9 -23 -70 -52 -107 -52 -44 0 -91 33 -91
65 0 8 -4 15 -10 15 -5 0 -10 8 -10 18 0 10 -3 22 -7 26 -29 28 -31 172 -32
1607 l-1 1465 33 32 c30 29 67 43 67 24 0 -21 66 -34 151 -30 l89 4 0 -812 c0
-531 -3 -815 -10 -819 -6 -3 -10 -19 -10 -36 0 -58 -55 -119 -107 -119 -40 0
-73 33 -73 73 0 36 -18 32 -43 -11 -28 -48 -9 -96 50 -129 27 -15 133 -17 133
-3 0 6 8 10 18 10 44 1 182 191 182 252 0 10 4 26 9 36 24 46 31 246 31 856 0
643 2 679 35 725 32 45 128 131 145 131 6 0 20 5 33 12 12 6 30 15 39 20 10 4
63 8 119 8 93 0 106 -2 162 -30 55 -29 137 -100 137 -120 0 -5 6 -15 13 -22
22 -22 77 -128 77 -148 0 -10 4 -21 9 -24 11 -7 19 -58 29 -181 11 -120 -8
-367 -29 -389 -5 -6 -9 -20 -9 -32 0 -13 -4 -26 -10 -29 -5 -3 -10 -13 -10
-21 0 -24 -41 -105 -91 -179 -48 -72 -125 -145 -153 -145 -9 0 -16 -4 -16 -9
0 -8 -23 -14 -110 -27 -38 -6 -93 13 -125 43 -58 53 -61 116 -8 168 35 34 36
36 17 50 -49 37 -144 3 -179 -65 -17 -33 -20 -106 -5 -115 6 -3 10 -13 10 -21
0 -23 56 -79 105 -104 39 -20 59 -23 151 -22 61 0 111 5 117 11 6 6 19 11 28
11 15 0 80 31 148 71 35 20 156 142 177 179 10 16 22 30 26 30 4 0 8 5 8 11 0
6 13 29 28 52 15 23 33 53 39 67 45 100 53 122 53 139 0 11 4 22 9 25 30 19
48 434 19 452 -4 3 -8 16 -8 29 0 51 -80 178 -166 263 -46 45 -90 82 -99 82
-8 0 -15 3 -15 8 0 6 -14 13 -85 42 -64 26 -107 31 -205 27 -122 -6 -188 -15
-196 -28 -3 -5 -18 -9 -34 -9 -16 0 -32 -4 -35 -10 -3 -5 -14 -10 -25 -10 -10
0 -38 -10 -62 -21 -23 -12 -52 -25 -63 -29 -11 -4 -42 -18 -70 -30 -27 -12
-60 -26 -72 -31 -13 -5 -33 -14 -46 -20 -13 -5 -47 -9 -76 -7 -62 3 -85 24
-63 58 20 32 15 90 -10 112 -32 27 -61 32 -146 22 -96 -11 -382 -11 -523 0
-101 8 -108 8 -138 -13 -26 -19 -31 -29 -31 -64 0 -46 20 -76 80 -117 44 -31
94 -81 109 -107 7 -15 11 -409 11 -1351 l0 -1331 -100 -100 c-55 -56 -104
-101 -109 -101 -6 0 -21 -10 -34 -22 -26 -26 -74 -57 -99 -65 -10 -3 -18 -9
-18 -14 0 -5 -6 -9 -14 -9 -8 0 -40 -13 -71 -30 -31 -17 -65 -30 -75 -30 -11
0 -22 -4 -25 -10 -3 -5 -17 -10 -30 -10 -13 0 -27 -4 -30 -10 -3 -5 -18 -10
-32 -10 -15 0 -40 -4 -57 -9 -44 -14 -238 -31 -264 -24 -18 4 -20 8 -11 19 6
8 20 14 30 14 10 0 21 5 24 10 3 6 17 10 31 10 13 0 24 5 24 10 0 6 9 10 20
10 11 0 20 5 20 10 0 6 9 10 19 10 11 0 21 3 23 8 2 4 23 18 48 31 25 14 52
32 60 41 8 9 31 27 50 40 38 26 150 139 150 151 0 4 6 14 14 21 11 12 30 47
87 160 5 10 9 26 9 36 0 10 4 22 9 28 33 34 33 449 0 470 -5 3 -9 17 -9 32 0
15 -9 38 -20 52 -11 14 -20 31 -20 38 0 6 -3 12 -8 12 -4 0 -18 17 -31 39 -13
21 -41 49 -62 62 -22 13 -39 27 -39 31 0 5 -9 8 -20 8 -11 0 -20 5 -20 10 0 6
-7 10 -15 10 -8 0 -23 4 -33 9 -59 30 -252 45 -267 21 -3 -5 -19 -10 -36 -10
-16 0 -29 -4 -29 -10 0 -5 -7 -10 -16 -10 -32 0 -124 -78 -124 -105 0 -8 -4
-15 -10 -15 -5 0 -10 -9 -10 -20 0 -11 -4 -20 -9 -20 -20 0 -40 -235 -22 -253
6 -6 11 -20 11 -31 0 -25 41 -116 52 -116 4 0 8 -6 8 -14 0 -19 87 -106 106
-106 8 0 14 -4 14 -10 0 -5 9 -10 19 -10 11 0 23 -4 26 -10 3 -5 46 -10 95
-10 49 0 92 5 95 10 3 6 17 10 31 10 13 0 32 4 42 9 73 37 106 51 117 51 7 0
15 6 18 13 3 9 7 9 20 -2 13 -10 17 -31 17 -87 0 -41 -5 -83 -10 -94 -5 -11
-14 -29 -20 -40 -5 -11 -10 -27 -10 -35 0 -8 -4 -15 -10 -15 -5 0 -10 -7 -10
-15 0 -9 -11 -27 -25 -41 -14 -14 -25 -29 -25 -33 0 -12 -90 -100 -122 -119
-15 -9 -28 -19 -28 -23 0 -4 -13 -12 -30 -19 -16 -7 -30 -16 -30 -21 0 -5 -9
-9 -20 -9 -11 0 -20 -3 -20 -8 0 -4 -15 -13 -32 -20 -18 -7 -41 -18 -50 -23
-10 -5 -29 -9 -42 -9 -14 0 -28 -4 -31 -10 -9 -14 -201 -12 -244 2 -68 23
-149 75 -201 129 -84 85 -110 123 -166 239 -44 92 -50 105 -65 155 -6 22 -15
48 -20 57 -5 10 -9 29 -9 42 0 14 -4 27 -9 30 -5 3 -12 25 -15 48 -4 24 -11
72 -16 108 -36 234 -44 495 -21 660 7 47 14 108 17 135 3 28 10 54 15 59 5 6
9 22 9 37 0 15 5 31 10 34 6 3 10 21 10 40 0 19 5 37 10 40 6 3 10 17 10 30 0
13 5 27 10 30 6 3 10 17 10 31 0 13 5 24 10 24 6 0 10 9 10 20 0 11 4 28 9 38
5 9 19 40 32 67 13 28 27 52 32 53 4 2 7 12 7 23 0 10 5 19 10 19 6 0 10 9 10
20 0 11 4 20 9 20 5 0 11 8 14 18 7 22 37 71 60 96 9 11 17 26 17 33 0 7 4 13
8 13 4 0 16 13 25 30 10 16 23 35 30 42 7 7 24 29 37 48 13 19 31 42 40 50 9
8 27 31 40 50 32 45 154 168 200 200 19 13 45 35 58 47 13 13 27 23 32 23 5 0
15 6 22 13 22 22 166 117 178 117 5 0 10 3 10 8 0 4 30 23 68 42 37 19 69 38
70 43 2 4 9 7 15 7 7 0 20 7 31 15 17 13 17 15 -8 42 -20 21 -28 25 -38 15
-14 -14 -58 -16 -58 -3 0 6 5 13 10 16 22 14 7 64 -32 109 -10 11 -18 23 -18
27 0 3 -18 18 -40 33 -40 27 -84 34 -95 16 -3 -5 -15 -10 -26 -10 -10 0 -19
-3 -19 -7 0 -10 -49 -33 -70 -33 -9 0 -20 -4 -26 -9 -5 -4 -48 -14 -96 -21
-68 -10 -97 -11 -127 -2 -21 7 -54 12 -74 12 -20 0 -38 4 -41 9 -3 5 -20 11
-38 14 -18 3 -51 10 -73 17 -151 44 -271 57 -380 43z"
    />
    <path
      d="M7253 7366 c-28 -6 -55 -14 -59 -18 -4 -5 -20 -8 -35 -8 -15 0 -31
-4 -34 -10 -3 -5 -14 -10 -25 -10 -10 0 -38 -10 -62 -21 -23 -12 -52 -25 -63
-29 -11 -4 -42 -18 -70 -30 -27 -12 -59 -26 -70 -30 -11 -4 -33 -13 -48 -19
-45 -18 -111 -14 -141 10 -32 25 -33 38 -5 68 28 29 10 44 -41 34 -40 -7 -51
-17 -69 -60 -11 -28 -11 -38 0 -65 27 -67 62 -82 178 -76 l91 4 0 -797 c0
-810 -1 -834 -36 -924 -13 -33 -57 -65 -90 -65 -38 0 -74 36 -74 73 0 35 -14
34 -39 -2 -37 -51 -20 -101 47 -138 30 -18 112 -16 149 2 73 36 161 165 191
280 27 102 32 247 32 878 0 426 3 658 10 662 6 3 10 13 10 20 0 33 99 132 160
161 85 40 101 44 195 44 80 0 103 -4 150 -25 51 -24 145 -104 145 -125 0 -5 7
-15 15 -23 19 -20 75 -131 75 -150 0 -9 4 -18 9 -21 10 -7 19 -57 29 -176 11
-120 -8 -372 -29 -395 -5 -5 -9 -17 -9 -27 0 -10 -4 -26 -9 -36 -5 -9 -19 -42
-32 -72 -34 -80 -113 -194 -156 -227 -21 -15 -39 -31 -41 -35 -2 -5 -12 -8
-23 -8 -10 0 -19 -4 -19 -9 0 -5 -15 -11 -32 -14 -18 -4 -48 -9 -66 -13 -41
-8 -109 12 -137 41 -58 61 -61 118 -8 170 35 34 36 36 17 50 -49 37 -144 3
-179 -65 -17 -33 -20 -106 -5 -115 6 -3 10 -13 10 -21 0 -23 56 -79 105 -104
39 -20 59 -23 151 -22 61 0 111 5 117 11 6 6 21 11 33 11 13 0 26 5 29 10 3 6
15 10 26 10 10 0 19 5 19 10 0 6 5 10 11 10 35 0 197 144 236 210 9 17 21 30
25 30 4 0 8 5 8 11 0 6 13 29 28 52 15 23 33 53 39 67 51 114 59 137 75 210
25 117 30 392 6 406 -4 3 -8 16 -8 29 0 50 -80 178 -164 260 -86 85 -137 115
-257 154 -44 14 -216 12 -286 -3z"
    />
    <path
      d="M8905 7368 c-16 -5 -46 -14 -65 -20 -69 -19 -123 -45 -195 -92 -60
-40 -195 -169 -195 -186 0 -5 -11 -20 -25 -34 -32 -32 -125 -212 -125 -241 0
-13 -4 -26 -9 -29 -35 -22 -44 -401 -11 -526 6 -25 14 -58 17 -75 3 -16 14
-44 24 -63 11 -18 19 -39 19 -47 0 -8 5 -15 10 -15 6 0 10 -7 10 -15 0 -14 19
-54 30 -65 3 -3 17 -21 30 -40 56 -83 204 -214 280 -246 149 -65 213 -77 375
-71 145 6 212 15 221 28 3 5 13 9 23 9 9 0 36 9 59 20 22 11 46 20 52 20 5 0
10 5 10 10 0 6 6 10 14 10 16 0 115 94 132 125 6 11 17 43 24 71 11 44 11 57
-1 85 -14 36 -41 66 -77 87 -31 18 -39 -6 -22 -70 10 -41 10 -58 -1 -92 -22
-70 -106 -138 -214 -174 -66 -22 -191 -34 -231 -23 -21 6 -54 11 -72 11 -18 0
-40 4 -50 9 -9 5 -35 14 -57 21 -22 7 -42 16 -45 19 -3 3 -25 17 -50 30 -51
28 -230 203 -230 226 0 8 -4 15 -8 15 -10 0 -72 123 -72 144 0 8 -4 18 -10 21
-5 3 -10 19 -10 34 0 15 -4 31 -10 37 -20 20 156 203 198 204 6 0 12 3 12 8 0
7 70 44 118 63 12 5 32 13 45 18 12 5 36 12 52 16 61 13 132 26 190 35 33 6
87 15 120 20 33 6 81 13 108 16 26 4 50 11 53 15 3 5 18 9 34 9 16 0 32 5 35
10 3 6 15 10 26 10 10 0 27 4 37 9 9 5 31 14 47 21 56 23 102 48 123 68 7 6
18 12 23 12 17 0 85 78 106 122 40 82 38 180 -5 223 -38 38 -104 35 -143 -6
-16 -17 -29 -35 -29 -40 0 -5 21 -9 46 -9 58 0 73 -17 74 -83 0 -51 -12 -80
-49 -113 -31 -29 -98 -64 -121 -64 -11 0 -22 -4 -25 -10 -3 -5 -21 -10 -40
-10 -19 0 -36 -4 -39 -9 -3 -4 -27 -11 -53 -14 -27 -4 -84 -11 -128 -17 -44
-7 -109 -15 -145 -20 -36 -5 -90 -14 -120 -20 -30 -6 -70 -13 -88 -17 -18 -3
-35 -9 -38 -14 -3 -5 -14 -9 -25 -9 -10 0 -27 -4 -37 -9 -9 -5 -43 -21 -75
-36 -31 -15 -63 -32 -70 -39 -6 -6 -28 -23 -47 -36 -19 -13 -70 -59 -113 -102
-42 -43 -80 -78 -83 -78 -9 0 3 323 14 370 21 94 55 180 95 240 37 56 172 190
192 190 8 0 15 4 15 9 0 5 15 14 33 21 48 18 80 31 99 41 10 5 35 9 55 9 21 0
54 5 73 10 36 10 125 -1 162 -21 10 -5 24 -9 31 -9 7 0 30 -15 50 -34 27 -24
37 -42 37 -63 0 -33 -22 -84 -45 -103 -59 -49 63 -81 144 -38 31 16 44 32 60
72 18 45 19 56 8 93 -23 76 -65 114 -182 164 -66 28 -293 39 -360 17z"
    />
    <path
      d="M10455 7370 c-11 -5 -37 -9 -57 -9 -20 -1 -47 -5 -60 -10 -13 -5 -41
-14 -63 -21 -71 -21 -215 -89 -215 -101 0 -5 -6 -9 -14 -9 -24 0 -141 -124
-164 -174 -26 -54 -30 -162 -8 -204 31 -59 98 -91 149 -72 69 28 108 99 82
151 -16 30 -45 31 -45 2 0 -19 -29 -42 -53 -43 -26 0 -43 20 -51 63 -13 68 2
104 68 170 68 69 82 78 186 125 25 11 59 23 75 27 17 3 62 12 100 20 116 25
275 17 385 -17 60 -19 90 -33 90 -40 0 -5 9 -8 20 -8 11 0 20 -4 20 -8 0 -4
14 -16 32 -26 39 -23 121 -108 139 -144 7 -15 21 -39 31 -54 10 -14 18 -35 18
-45 0 -10 4 -23 9 -28 14 -17 34 -181 27 -222 -5 -21 -10 -51 -13 -68 -5 -33
-9 -45 -48 -128 -14 -31 -32 -63 -38 -70 -7 -6 -25 -29 -40 -50 -34 -45 -127
-117 -152 -117 -10 0 -25 8 -34 19 -39 45 -92 64 -182 65 -58 1 -95 -4 -115
-14 -93 -48 -99 -142 -12 -189 33 -17 57 -21 135 -21 52 0 102 4 112 10 23 12
45 -11 55 -55 4 -16 11 -48 17 -70 17 -69 30 -129 36 -168 3 -20 9 -40 14 -43
5 -3 9 -14 9 -25 0 -10 4 -27 9 -37 5 -9 21 -42 35 -73 58 -126 198 -253 316
-288 25 -7 58 -17 74 -22 16 -5 57 -9 92 -9 129 0 219 94 151 158 -13 12 -36
22 -51 22 -27 0 -28 -1 -21 -39 5 -33 3 -42 -16 -60 -30 -28 -96 -28 -146 0
-41 23 -110 94 -119 122 -3 9 -10 17 -15 17 -5 0 -9 9 -9 19 0 11 -3 21 -7 23
-12 5 -93 178 -93 198 0 6 -4 18 -9 28 -5 9 -13 28 -19 42 -40 100 -108 240
-121 250 -3 3 -12 16 -19 29 -16 27 -13 30 51 59 20 9 37 20 37 24 0 5 7 8 15
8 17 0 169 147 203 197 35 50 82 143 82 162 0 9 4 21 9 27 4 5 14 48 21 96 10
68 11 97 2 127 -7 21 -12 50 -12 65 0 14 -4 34 -9 44 -4 9 -19 41 -32 69 -13
29 -27 53 -31 53 -5 0 -8 6 -8 14 0 18 -97 117 -132 135 -16 8 -28 18 -28 21
0 4 -13 13 -30 20 -16 7 -30 16 -30 21 0 5 -6 9 -14 9 -8 0 -31 9 -53 19 -21
10 -58 24 -83 31 -25 6 -59 16 -76 21 -38 11 -332 11 -359 -1z m260 -1103 c80
-41 46 -87 -65 -87 -79 0 -121 39 -87 82 20 27 104 30 152 5z"
    />
    <path
      d="M10394 7162 c-10 -10 -35 -28 -54 -42 -19 -13 -37 -27 -40 -30 -3 -3
-16 -11 -29 -18 -13 -8 -38 -22 -56 -32 -64 -36 -75 -45 -75 -62 0 -10 7 -18
16 -18 44 0 44 6 44 -629 l0 -601 -40 -28 c-21 -15 -39 -34 -40 -43 0 -14 23
-17 168 -22 101 -3 171 -2 177 4 6 6 -7 25 -38 53 l-47 44 0 655 c0 427 3 658
10 662 6 3 10 15 10 26 0 10 5 19 10 19 6 0 10 9 10 20 0 11 5 20 10 20 6 0
10 9 10 20 0 25 -20 26 -46 2z"
    />
    <path
      d="M1555 5290 c-3 -5 -14 -10 -24 -10 -18 0 -66 -47 -94 -92 -19 -30
-24 -143 -7 -153 6 -3 10 -14 10 -23 0 -24 39 -66 83 -91 40 -23 150 -30 162
-11 3 6 15 10 25 10 23 0 110 86 110 109 0 9 5 22 12 29 9 9 9 24 -2 64 -7 29
-18 62 -24 72 -15 26 -67 78 -94 94 -26 14 -148 16 -157 2z"
    />
    <path
      d="M8170 5203 c-14 -2 -34 -8 -45 -12 -41 -17 -120 -56 -125 -61 -3 -3
-21 -17 -40 -30 -45 -31 -108 -95 -140 -140 -13 -19 -32 -44 -42 -54 -10 -11
-18 -26 -18 -33 0 -7 -3 -13 -8 -13 -4 0 -18 -18 -32 -40 -14 -22 -28 -40 -32
-40 -5 0 -8 -6 -8 -13 0 -7 -8 -22 -18 -33 -10 -10 -31 -46 -48 -79 -63 -122
-79 -150 -86 -153 -5 -2 -8 -12 -8 -22 0 -10 -3 -20 -7 -22 -7 -3 -37 -55 -67
-115 -6 -13 -14 -23 -18 -23 -5 0 -8 -6 -8 -12 -1 -26 -29 -49 -81 -68 -30
-11 -65 -20 -78 -20 -14 0 -38 -4 -55 -9 -17 -5 -49 -14 -71 -19 -99 -25 -133
-35 -168 -53 -22 -10 -45 -19 -53 -19 -8 0 -14 -4 -14 -9 0 -5 -8 -11 -17 -14
-23 -7 -72 -37 -97 -59 -11 -10 -24 -18 -29 -18 -5 0 -17 -8 -26 -18 -9 -9
-33 -30 -53 -45 -49 -36 -146 -132 -182 -180 -15 -21 -43 -54 -62 -72 -19 -19
-34 -38 -34 -43 0 -4 -8 -17 -18 -28 -10 -10 -28 -35 -42 -54 -13 -19 -27 -37
-30 -40 -8 -8 -108 -202 -121 -237 -12 -31 -27 -68 -38 -95 -24 -56 -40 -119
-35 -133 4 -8 1 -15 -5 -15 -6 0 -11 -7 -11 -15 0 -8 -3 -15 -7 -15 -10 0 -33
49 -33 67 0 7 -4 21 -9 31 -5 9 -14 37 -21 62 -7 25 -16 53 -21 62 -5 10 -9
29 -9 42 0 14 -4 28 -10 31 -5 3 -10 19 -10 35 0 16 -4 32 -10 35 -5 3 -10 19
-10 35 0 16 -4 32 -10 35 -5 3 -10 19 -10 35 0 16 -4 31 -9 34 -5 3 -11 20
-14 38 -3 18 -11 51 -17 73 -7 22 -14 57 -17 78 -3 20 -9 40 -14 43 -5 3 -9
18 -9 34 0 16 -4 32 -10 35 -5 3 -10 21 -10 40 0 19 -4 36 -9 39 -5 3 -11 23
-14 43 -3 21 -10 59 -16 86 -27 118 -33 145 -42 197 -14 78 -28 166 -39 235
-4 33 -12 80 -15 105 -7 45 -6 46 41 89 134 120 134 119 134 163 0 73 -50 98
-160 79 -90 -15 -368 -14 -498 1 -84 9 -110 9 -140 -2 -50 -18 -62 -32 -62
-77 0 -30 8 -47 34 -76 18 -20 38 -37 43 -37 5 0 18 -8 29 -18 10 -10 34 -28
51 -40 18 -13 39 -37 47 -55 14 -30 18 -52 32 -167 3 -25 10 -49 15 -55 5 -5
9 -28 9 -51 0 -24 5 -46 10 -49 6 -3 10 -26 10 -50 0 -24 5 -47 10 -50 6 -3
10 -23 10 -44 0 -20 4 -41 9 -46 5 -6 11 -28 15 -50 13 -98 18 -121 26 -140 8
-19 11 -30 25 -115 4 -19 10 -44 15 -55 5 -11 11 -33 14 -50 4 -28 11 -58 36
-152 24 -96 32 -130 37 -161 3 -18 9 -35 14 -38 5 -3 9 -18 9 -34 0 -16 5 -32
10 -35 6 -3 10 -17 10 -30 0 -13 4 -34 9 -47 5 -13 14 -43 21 -68 7 -25 16
-53 21 -62 5 -10 9 -29 9 -42 0 -14 5 -28 10 -31 6 -3 10 -17 10 -30 0 -13 5
-27 10 -30 6 -3 10 -19 10 -36 0 -16 5 -29 10 -29 6 0 10 -13 10 -29 0 -17 5
-33 10 -36 6 -3 10 -17 10 -30 0 -13 5 -27 10 -30 6 -3 10 -17 10 -30 0 -13 5
-27 10 -30 6 -3 10 -17 10 -31 0 -13 5 -24 10 -24 6 0 10 -11 10 -24 0 -14 5
-28 10 -31 6 -3 10 -17 10 -30 0 -13 5 -27 10 -30 6 -3 10 -17 10 -30 0 -13 4
-26 8 -29 4 -3 14 -28 22 -56 8 -28 18 -53 22 -56 4 -3 8 -14 8 -25 0 -10 4
-27 9 -37 5 -9 14 -30 21 -47 7 -16 16 -38 21 -47 5 -10 9 -25 9 -33 0 -8 4
-23 9 -33 5 -9 14 -30 21 -47 7 -16 16 -38 21 -47 5 -10 9 -25 9 -33 0 -8 4
-23 9 -33 10 -19 30 -67 41 -97 4 -11 13 -33 20 -50 7 -16 17 -40 21 -52 5
-13 14 -35 20 -50 7 -16 16 -38 20 -50 17 -44 31 -78 40 -95 17 -34 11 -58
-15 -58 -14 0 -28 -4 -31 -10 -3 -5 -13 -10 -22 -10 -25 0 -99 -86 -113 -132
-7 -24 -17 -58 -23 -75 -8 -24 -8 -42 1 -66 7 -18 12 -39 12 -46 0 -18 81 -96
122 -119 83 -46 173 -50 335 -17 74 16 84 20 95 46 7 16 18 29 25 29 15 0 249
232 283 280 13 19 32 44 42 54 10 11 18 25 18 32 0 7 3 14 8 16 9 4 41 57 49
80 3 10 9 18 14 18 5 0 9 6 9 14 0 8 8 31 19 53 21 43 53 114 70 156 6 15 11
38 11 50 0 13 4 27 9 32 5 6 11 21 13 35 3 23 36 45 103 70 75 28 300 147 327
173 7 7 29 24 48 37 42 29 150 137 150 150 0 5 10 20 23 33 45 47 144 245 178
357 20 65 19 347 -1 386 -19 37 -108 126 -140 141 -14 6 -41 18 -60 26 -19 8
-51 22 -70 30 -19 8 -52 20 -72 26 -21 6 -53 16 -71 21 -18 6 -45 10 -59 10
-37 0 -58 29 -58 83 0 25 5 49 10 52 6 3 10 17 10 30 0 13 5 27 10 30 6 3 10
16 10 27 0 26 20 93 48 158 12 28 21 68 29 123 3 20 9 40 14 43 5 3 9 18 9 34
0 16 5 32 10 35 6 3 10 13 10 22 0 18 48 63 68 63 6 0 12 4 12 8 0 5 12 15 28
23 15 8 36 22 46 32 11 9 26 17 33 17 7 0 13 3 13 8 0 4 18 18 40 32 22 14 40
28 40 32 0 5 6 8 13 8 7 0 22 8 33 18 10 10 35 28 54 42 19 13 42 32 51 42 9
10 21 18 27 18 13 0 162 145 162 158 0 5 12 22 28 38 15 16 33 42 41 57 8 15
18 27 23 27 4 0 8 6 8 13 0 7 8 22 18 33 28 30 86 148 111 225 23 72 9 229
-21 229 -4 0 -8 6 -8 14 0 8 -15 24 -34 35 -32 20 -74 24 -136 14z m-44 -304
c14 -15 19 -36 19 -79 0 -52 -6 -72 -37 -135 -21 -40 -74 -104 -100 -120 -15
-8 -33 -21 -40 -28 -22 -21 -106 -77 -116 -77 -6 0 -12 -3 -14 -7 -5 -12 -166
-91 -172 -85 -10 9 -7 60 4 67 6 3 10 17 10 30 0 20 54 141 70 155 3 3 11 17
19 33 8 15 18 27 23 27 4 0 8 7 8 15 0 20 158 176 206 202 51 28 96 29 120 2z
m-851 -951 c22 -10 25 -17 25 -61 0 -48 -12 -101 -31 -139 -5 -10 -9 -25 -9
-33 0 -8 -4 -24 -10 -35 -5 -11 -14 -29 -20 -40 -5 -11 -10 -29 -10 -40 0 -11
-4 -20 -10 -20 -5 0 -10 -9 -10 -20 0 -11 -4 -28 -9 -38 -5 -9 -19 -39 -32
-67 -13 -27 -30 -56 -37 -63 -6 -8 -17 -22 -22 -33 -6 -10 -17 -19 -25 -19 -7
0 -15 -3 -17 -7 -1 -5 -24 -19 -50 -32 -27 -13 -48 -28 -48 -33 0 -4 -7 -8
-15 -8 -19 0 -185 -166 -185 -185 0 -8 -4 -15 -8 -15 -5 0 -15 -12 -23 -27 -8
-16 -16 -30 -19 -33 -15 -15 -30 -53 -30 -74 0 -14 -4 -28 -10 -31 -12 -7 -14
-155 -2 -155 5 0 15 -12 23 -27 18 -36 52 -66 106 -94 39 -20 47 -21 83 -9 22
7 40 17 40 22 0 4 7 8 15 8 16 0 71 69 87 110 13 34 3 65 -27 78 -33 15 -95
72 -95 87 0 23 31 73 55 89 44 29 88 17 113 -30 15 -28 8 -109 -28 -339 -5
-33 -12 -79 -16 -103 -3 -23 -10 -45 -15 -48 -5 -3 -9 -15 -9 -28 0 -36 -22
-72 -53 -86 -24 -10 -40 -10 -86 0 -31 6 -66 16 -79 21 -13 5 -32 9 -42 9 -11
0 -20 5 -20 10 0 6 -6 10 -13 10 -18 0 -67 24 -67 33 0 4 -8 7 -18 7 -10 0
-24 9 -32 20 -8 11 -20 20 -26 20 -16 0 -87 71 -110 109 -10 17 -22 31 -26 31
-4 0 -8 6 -8 13 0 7 -8 22 -18 33 -9 10 -32 51 -51 89 -18 39 -37 78 -42 87
-5 10 -9 27 -9 37 0 11 -4 23 -10 26 -6 4 -10 55 -10 120 0 65 4 116 10 120 6
3 10 16 10 27 0 25 119 268 132 268 4 0 8 6 8 13 0 7 9 23 20 35 11 12 20 25
20 29 0 12 50 73 100 123 48 47 63 60 120 100 19 13 37 27 40 31 3 3 43 26 90
49 47 23 93 46 102 51 10 5 25 9 33 9 8 0 23 4 33 9 34 17 89 31 128 32 21 1
53 5 69 9 44 11 52 11 80 -2z m130 -883 c89 -20 215 -92 215 -123 0 -4 8 -17
18 -28 38 -42 47 -75 45 -162 -2 -79 -7 -100 -34 -154 -5 -10 -9 -27 -9 -38 0
-11 -4 -20 -10 -20 -5 0 -10 -6 -10 -14 0 -19 -87 -106 -106 -106 -8 0 -14 -4
-14 -8 0 -12 -118 -72 -141 -72 -10 0 -21 -4 -24 -10 -3 -5 -34 -10 -67 -10
-50 0 -64 4 -80 22 -23 27 -33 62 -23 85 9 21 22 119 35 263 15 163 21 204 31
215 5 5 9 26 9 46 0 21 5 41 10 44 6 3 10 17 10 31 0 52 39 63 145 39z m-925
-1035 c3 -3 28 -16 55 -29 28 -13 58 -27 67 -32 10 -5 27 -9 37 -9 11 0 23 -4
26 -10 3 -5 15 -10 26 -10 10 0 27 -4 37 -9 9 -5 37 -15 62 -22 61 -17 90 -44
90 -85 0 -18 -4 -36 -10 -39 -5 -3 -10 -15 -10 -26 0 -10 -4 -27 -9 -37 -5 -9
-24 -48 -42 -87 -19 -38 -42 -77 -51 -86 -10 -9 -18 -21 -18 -27 0 -6 -28 -40
-63 -76 l-62 -66 -78 0 c-62 0 -77 3 -77 15 0 16 -20 56 -32 65 -4 3 -8 141
-10 307 l-3 301 30 -16 c17 -10 32 -19 35 -22z"
    />
    <path
      d="M13025 4548 c-22 -6 -48 -14 -57 -19 -10 -5 -25 -9 -33 -9 -8 0 -23
-4 -33 -9 -9 -5 -32 -16 -49 -23 -18 -7 -33 -16 -33 -20 0 -5 -5 -8 -11 -8
-30 0 -239 -183 -239 -209 0 -6 -11 -21 -25 -35 -32 -32 -125 -212 -125 -241
0 -13 -4 -26 -9 -29 -35 -22 -44 -401 -11 -526 6 -25 14 -58 17 -75 3 -16 14
-44 24 -63 11 -18 19 -39 19 -47 0 -8 5 -15 10 -15 6 0 10 -7 10 -15 0 -14 19
-54 30 -65 3 -3 17 -21 30 -40 58 -86 203 -213 285 -249 17 -7 38 -17 47 -22
10 -5 25 -9 33 -9 8 0 23 -4 33 -9 43 -23 133 -33 257 -28 145 6 212 15 221
28 3 5 16 9 29 9 13 0 27 5 30 10 3 6 15 10 26 10 10 0 19 5 19 10 0 6 7 10
16 10 21 0 70 35 119 85 49 51 59 67 75 131 11 44 11 57 0 85 -17 41 -40 66
-75 85 -22 11 -27 11 -32 -2 -3 -8 -3 -26 1 -39 3 -14 9 -37 12 -51 17 -66
-56 -171 -146 -212 -103 -46 -237 -70 -303 -53 -25 6 -62 11 -81 11 -19 0 -38
5 -41 10 -3 6 -17 10 -30 10 -13 0 -27 5 -30 10 -3 6 -15 10 -26 10 -10 0 -19
4 -19 9 0 5 -8 11 -17 14 -40 13 -83 47 -170 135 -51 50 -93 99 -93 107 0 8
-3 15 -8 15 -7 0 -44 70 -63 118 -5 12 -13 32 -18 45 -22 53 -22 92 1 122 37
48 129 134 160 147 15 7 28 16 28 19 0 6 68 41 120 62 58 23 66 26 95 32 61
13 132 26 190 35 33 6 87 15 120 20 33 6 81 13 108 16 26 4 50 11 53 15 3 5
18 9 34 9 16 0 32 5 35 10 3 6 15 10 26 10 10 0 27 4 37 9 9 5 31 14 47 21 17
7 41 19 55 27 14 8 33 17 43 20 9 3 17 9 17 14 0 5 6 9 14 9 22 0 99 82 123
131 28 57 36 120 23 170 -15 55 -44 79 -98 79 -36 0 -49 -5 -73 -31 -16 -17
-29 -35 -29 -40 0 -5 21 -9 46 -9 58 0 73 -17 74 -83 0 -51 -12 -80 -49 -113
-31 -29 -98 -64 -121 -64 -11 0 -22 -4 -25 -10 -3 -5 -21 -10 -40 -10 -19 0
-36 -4 -39 -9 -3 -5 -29 -11 -58 -15 -29 -3 -84 -11 -123 -16 -38 -6 -104 -15
-145 -20 -41 -5 -97 -14 -125 -20 -27 -6 -65 -14 -83 -17 -18 -3 -35 -9 -38
-14 -3 -5 -14 -9 -25 -9 -22 0 -161 -64 -181 -83 -7 -7 -29 -24 -48 -37 -19
-14 -70 -60 -113 -102 -43 -43 -81 -78 -83 -78 -7 0 2 320 10 355 12 53 29
110 36 120 4 6 12 29 20 52 7 23 20 50 29 60 9 10 23 31 30 46 19 35 142 153
170 162 12 3 21 10 21 14 0 5 15 14 33 21 48 18 80 31 99 41 10 5 35 9 55 9
21 0 54 5 73 10 36 10 125 -1 162 -21 10 -5 24 -9 31 -9 7 0 30 -15 50 -34 52
-48 50 -96 -8 -164 -46 -54 50 -83 138 -42 37 18 48 30 66 72 18 43 19 56 10
94 -13 52 -70 114 -126 139 -21 9 -47 21 -58 26 -65 28 -272 38 -360 17z"
    />
    <path
      d="M14526 4524 c-40 -28 -77 -29 -226 -5 -97 15 -142 5 -195 -41 -25
-22 -45 -46 -45 -54 0 -8 -5 -23 -12 -33 -25 -41 28 -131 78 -131 29 0 72 38
76 70 7 45 -6 57 -33 31 l-24 -22 -18 22 c-21 26 -16 65 11 86 19 14 98 18
106 4 3 -5 18 -11 33 -14 96 -19 147 -33 150 -43 2 -6 -6 -21 -16 -33 -11 -13
-23 -32 -26 -42 -4 -11 -10 -19 -14 -19 -5 0 -14 -13 -21 -30 -7 -16 -16 -30
-21 -30 -5 0 -9 -9 -9 -19 0 -11 -4 -21 -8 -23 -5 -1 -28 -43 -51 -93 -24 -49
-47 -98 -52 -107 -5 -10 -9 -27 -9 -37 0 -11 -4 -23 -10 -26 -5 -3 -10 -19
-10 -35 0 -16 -4 -31 -9 -34 -29 -18 -13 -426 18 -471 4 -5 13 -29 21 -52 7
-24 17 -43 22 -43 4 0 8 -9 8 -20 0 -11 4 -20 9 -20 5 0 13 -9 16 -20 7 -22
90 -109 120 -126 68 -38 97 -49 166 -64 31 -7 73 -10 93 -6 20 3 52 9 71 12
19 3 38 10 41 15 3 5 14 9 25 9 10 0 19 5 19 10 0 6 5 10 11 10 28 0 189 138
189 161 0 15 30 42 38 35 3 -4 1 -16 -6 -26 -7 -11 -12 -28 -12 -38 0 -11 -6
-32 -14 -48 -15 -32 -44 -98 -56 -129 -25 -66 -108 -222 -132 -249 -10 -11
-18 -23 -18 -28 0 -14 -103 -126 -145 -158 -25 -19 -59 -35 -107 -51 -31 -11
-47 -10 -90 0 -29 8 -61 20 -71 27 -23 15 -47 59 -47 85 0 24 -28 25 -46 2 -7
-10 -14 -29 -14 -44 0 -14 -4 -29 -9 -35 -16 -15 11 -97 42 -127 33 -31 71
-49 140 -67 38 -10 60 -10 110 0 34 7 66 17 72 21 5 5 17 9 27 9 10 0 18 4 18
9 0 5 9 13 20 16 31 10 130 112 178 182 24 35 61 100 83 145 22 46 45 91 50
100 5 10 9 25 9 33 0 8 5 15 10 15 6 0 10 9 10 20 0 11 4 28 10 38 10 17 55
150 71 207 4 17 13 48 19 70 19 66 28 107 60 253 28 123 62 313 80 447 5 33
14 96 20 140 6 44 15 107 20 140 16 111 35 183 62 232 l17 32 -159 0 c-94 0
-160 -4 -160 -10 0 -5 4 -9 9 -9 14 0 66 -118 80 -180 15 -65 9 -408 -8 -510
-7 -36 -14 -82 -17 -103 -4 -20 -10 -40 -15 -43 -5 -3 -9 -18 -9 -34 0 -16 -4
-32 -10 -35 -5 -3 -10 -17 -10 -31 0 -13 -4 -24 -10 -24 -5 0 -10 -5 -10 -12
0 -19 -43 -108 -52 -108 -4 0 -8 -7 -8 -15 0 -9 -33 -48 -72 -88 -53 -53 -85
-76 -118 -86 -25 -8 -49 -18 -54 -23 -13 -11 -162 -10 -184 1 -9 5 -34 17 -55
26 -43 19 -137 109 -137 131 0 8 -4 14 -10 14 -5 0 -10 9 -10 20 0 11 -4 20
-10 20 -5 0 -10 11 -10 24 0 14 -4 27 -9 30 -23 15 -43 265 -31 392 13 138 21
183 31 190 5 3 9 16 9 30 0 13 4 32 9 42 5 9 13 28 19 42 24 60 55 125 61 130
3 3 11 14 17 25 26 48 39 70 44 75 3 3 21 25 40 50 19 25 38 47 42 48 15 6 8
31 -10 41 -14 8 -28 4 -56 -15z"
    />
    <path
      d="M8990 4510 c-8 -5 -26 -10 -40 -10 -27 0 -95 -22 -106 -33 -4 -4 -16
-7 -26 -7 -10 0 -26 -4 -36 -9 -9 -5 -39 -19 -67 -32 -27 -13 -52 -26 -55 -29
-3 -3 -16 -11 -30 -18 -83 -42 -273 -211 -330 -292 -43 -62 -36 -60 -216 -60
-182 0 -212 -5 -329 -61 -27 -13 -51 -27 -53 -31 -2 -5 -9 -8 -15 -8 -19 0
-63 -43 -88 -85 -18 -32 -23 -55 -22 -114 0 -48 4 -76 11 -79 7 -2 12 -10 12
-17 0 -8 14 -22 30 -32 17 -9 30 -21 30 -25 0 -14 116 -8 148 8 17 8 40 27 50
42 32 45 39 132 11 132 -5 0 -9 -9 -9 -19 0 -12 -13 -26 -32 -35 -26 -14 -36
-14 -60 -4 -15 7 -28 20 -28 28 0 9 -5 21 -11 27 -14 14 8 80 36 108 28 29 93
65 115 65 10 0 22 5 25 10 3 6 21 10 40 10 18 0 56 5 83 12 59 13 182 -6 163
-25 -6 -6 -11 -19 -11 -29 0 -10 -4 -18 -10 -18 -5 0 -10 -9 -10 -20 0 -11 -4
-20 -10 -20 -5 0 -10 -9 -10 -19 0 -11 -4 -23 -10 -26 -5 -3 -10 -17 -10 -30
0 -13 -4 -27 -10 -30 -5 -3 -10 -17 -10 -30 0 -13 -4 -26 -9 -29 -5 -3 -11
-18 -14 -33 -4 -16 -11 -50 -17 -78 -6 -27 -14 -70 -17 -95 -3 -25 -9 -50 -14
-56 -11 -13 -13 -439 -3 -456 4 -6 11 -40 16 -77 5 -36 13 -95 19 -131 5 -36
14 -108 19 -160 11 -118 19 -160 29 -160 4 0 21 11 37 25 16 14 35 25 42 25 6
0 12 3 12 8 0 4 15 13 33 21 17 7 51 22 74 32 24 10 50 19 58 19 31 0 14 35
-27 55 -41 20 -118 86 -118 102 0 4 -9 19 -20 33 -11 14 -20 35 -20 47 0 12
-4 25 -10 28 -5 3 -10 16 -10 29 0 12 -4 26 -9 32 -17 17 -23 107 -24 329 -1
137 3 239 10 270 7 28 15 64 18 80 4 17 10 39 15 50 4 11 13 36 20 55 14 39
18 50 62 158 7 17 16 32 20 32 5 0 8 9 8 19 0 22 22 33 48 25 57 -19 232 -104
232 -114 0 -4 12 -13 28 -19 28 -12 212 -192 212 -208 0 -5 8 -18 18 -29 15
-16 43 -69 114 -216 4 -10 8 -28 8 -41 0 -13 3 -27 7 -31 13 -13 31 -137 32
-219 1 -94 -6 -109 -78 -169 -12 -10 -21 -22 -21 -28 0 -6 66 -10 180 -10 99
0 180 3 180 8 0 4 -22 27 -50 52 l-50 45 0 696 c0 486 3 714 12 755 10 53 40
114 60 122 4 2 8 8 8 13 0 12 -211 11 -230 -1z m-18 -556 c2 -256 1 -467 -1
-470 -6 -6 -40 36 -46 57 -4 11 -10 19 -14 19 -4 0 -13 11 -19 25 -22 47 -205
235 -230 235 -4 0 -23 14 -42 30 -19 16 -40 30 -47 30 -6 0 -13 3 -15 8 -4 10
-87 52 -104 52 -8 0 -14 5 -14 10 0 6 -10 10 -22 10 -13 0 -34 9 -46 19 -21
15 -22 20 -10 32 7 8 25 30 38 49 32 45 115 128 160 160 19 13 37 27 40 30 13
16 102 69 165 99 39 18 78 37 87 42 10 5 29 9 42 9 14 0 28 5 31 10 3 6 15 10
25 10 19 0 20 -14 22 -466z"
    />
    <path
      d="M9610 4510 c0 -6 10 -18 22 -28 12 -9 32 -28 45 -41 l23 -24 0 -569
c0 -547 -4 -630 -31 -680 -5 -10 -9 -23 -9 -29 0 -6 -13 -30 -30 -54 -16 -24
-30 -47 -30 -50 0 -4 -28 -33 -62 -66 -61 -56 -62 -59 -43 -73 11 -9 25 -16
31 -16 7 0 28 -18 48 -40 40 -45 51 -48 75 -22 51 57 169 82 286 62 33 -6 75
-14 93 -17 18 -3 35 -9 38 -14 3 -5 14 -9 25 -9 10 0 27 -4 37 -9 9 -5 37 -14
62 -21 25 -7 55 -16 68 -21 31 -12 219 -11 227 1 3 6 14 10 24 10 20 0 93 34
124 58 40 31 107 107 120 135 6 15 15 27 19 27 5 0 8 10 8 23 0 13 5 28 11 34
14 14 14 216 -1 256 -51 137 -122 211 -240 254 -40 14 -202 17 -228 4 -9 -5
-30 -15 -47 -22 -46 -21 -109 -91 -123 -138 -10 -35 -10 -53 0 -97 7 -30 16
-54 20 -54 5 0 8 -7 8 -14 0 -8 16 -27 36 -42 31 -24 46 -28 103 -28 62 -1 69
1 104 33 20 19 37 43 37 54 0 17 -5 18 -48 12 -67 -9 -92 13 -92 84 0 42 5 57
25 76 13 14 31 25 39 25 8 0 18 5 21 10 3 6 37 10 75 10 38 0 72 -4 75 -10 3
-5 13 -10 22 -10 20 0 94 -76 112 -115 7 -16 18 -39 23 -49 14 -27 13 -215 -1
-229 -6 -6 -11 -17 -11 -24 0 -30 -94 -123 -124 -123 -8 0 -18 -4 -21 -10 -3
-6 -50 -10 -105 -10 -55 0 -102 4 -105 10 -3 6 -19 10 -35 10 -16 0 -32 5 -35
10 -3 6 -17 10 -30 10 -13 0 -27 5 -30 10 -3 6 -17 10 -30 10 -13 0 -27 5 -30
10 -3 6 -17 10 -31 10 -14 0 -35 5 -46 11 -26 14 -217 14 -231 0 -6 -6 -19
-11 -29 -11 -10 0 -26 -4 -36 -9 -9 -5 -30 -15 -47 -22 -16 -8 -33 -18 -37
-24 -4 -5 -10 -7 -13 -3 -4 4 7 21 24 39 17 17 31 38 31 45 0 8 4 14 9 14 5 0
14 14 21 30 7 17 16 30 21 30 5 0 9 7 9 15 0 8 5 24 10 35 6 11 15 29 20 40 6
11 10 28 10 38 0 10 4 22 9 27 18 19 23 128 27 640 3 340 8 527 15 541 6 11
24 28 40 38 16 9 29 24 29 32 0 12 -29 14 -175 14 -111 0 -175 -4 -175 -10z"
    />
    <path
      d="M11050 4510 c0 -5 7 -15 16 -22 9 -7 29 -26 45 -42 l29 -28 0 -570
c0 -547 -4 -630 -31 -680 -5 -10 -9 -23 -9 -29 0 -6 -13 -30 -30 -54 -16 -24
-30 -47 -30 -50 0 -4 -28 -33 -62 -66 -61 -56 -62 -59 -43 -73 11 -9 25 -16
31 -16 7 0 28 -18 48 -40 40 -45 51 -48 75 -22 51 57 169 82 286 62 33 -6 75
-14 93 -17 18 -3 35 -9 38 -14 3 -5 14 -9 25 -9 10 0 27 -4 37 -9 9 -5 37 -14
62 -21 25 -7 55 -16 68 -21 33 -13 189 -11 231 3 57 18 119 46 143 65 41 33
108 108 121 136 6 15 15 27 19 27 5 0 8 10 8 23 0 13 5 28 10 33 15 15 14 224
-1 260 -56 140 -121 208 -239 251 -40 14 -202 17 -228 4 -9 -5 -30 -15 -47
-22 -46 -21 -109 -91 -123 -138 -10 -35 -10 -53 0 -97 7 -30 16 -54 20 -54 5
0 8 -7 8 -14 0 -8 16 -27 36 -42 31 -24 46 -28 103 -28 62 -1 69 1 104 33 20
19 37 43 37 54 0 17 -5 18 -48 12 -67 -9 -92 13 -92 84 0 42 5 57 25 76 13 14
31 25 39 25 8 0 18 5 21 10 3 6 37 10 75 10 38 0 72 -4 75 -10 3 -5 13 -10 22
-10 20 0 94 -76 112 -115 7 -16 18 -39 23 -49 14 -27 13 -215 -1 -229 -6 -6
-11 -17 -11 -24 0 -30 -94 -123 -124 -123 -8 0 -18 -4 -21 -10 -3 -6 -50 -10
-105 -10 -55 0 -102 4 -105 10 -3 6 -19 10 -35 10 -16 0 -32 5 -35 10 -3 6
-17 10 -30 10 -13 0 -27 5 -30 10 -3 6 -17 10 -30 10 -13 0 -27 5 -30 10 -3 6
-17 10 -31 10 -14 0 -35 5 -46 11 -26 14 -217 14 -231 0 -6 -6 -19 -11 -29
-11 -10 0 -26 -4 -36 -9 -9 -5 -30 -15 -47 -22 -16 -8 -33 -18 -37 -24 -4 -5
-10 -7 -13 -3 -4 4 7 21 24 39 17 17 31 38 31 45 0 8 4 14 9 14 5 0 14 14 21
30 7 17 16 30 21 30 5 0 9 7 9 15 0 8 5 24 10 35 6 11 15 29 20 40 6 11 10 28
10 38 0 10 4 22 9 27 18 19 23 128 27 640 3 340 8 527 15 541 6 11 24 28 40
38 16 9 29 24 29 32 0 12 -29 14 -175 14 -105 0 -175 -4 -175 -10z"
    />
    <path
      d="M1715 4352 c-48 -23 -115 -93 -115 -121 0 -11 -4 -23 -10 -26 -30
-19 9 -138 62 -187 54 -51 139 -73 186 -49 9 5 30 15 47 22 38 18 95 74 95 93
0 8 5 18 10 21 6 3 10 30 10 60 0 30 -4 57 -10 60 -5 3 -10 14 -10 24 0 19
-53 79 -89 100 -41 23 -130 24 -176 3z"
    />
    <path
      d="M8115 2010 c-3 -5 -17 -10 -31 -10 -13 0 -24 -4 -24 -10 0 -5 -6 -10
-13 -10 -38 0 -105 -95 -136 -191 -21 -68 -9 -230 21 -263 4 -6 8 -16 8 -24 0
-18 76 -93 110 -109 55 -26 127 -33 192 -20 80 17 106 32 119 64 12 33 2 83
-16 83 -8 0 -30 -9 -50 -20 -50 -28 -134 -27 -178 2 -81 53 -101 204 -44 328
27 58 89 86 161 73 40 -7 86 -26 86 -35 0 -5 9 -8 20 -8 17 0 20 7 20 48 0 39
-5 53 -25 70 -14 12 -34 22 -44 22 -11 0 -23 5 -26 10 -3 6 -37 10 -75 10 -38
0 -72 -4 -75 -10z"
    />
    <path
      d="M8640 2010 c-8 -5 -25 -10 -37 -10 -13 0 -23 -4 -23 -10 0 -5 -7 -10
-16 -10 -26 0 -100 -86 -113 -132 -7 -24 -17 -51 -22 -60 -13 -26 -10 -166 5
-218 24 -79 28 -90 37 -90 5 0 9 -7 9 -14 0 -16 48 -54 90 -73 57 -26 144 -34
211 -20 131 28 183 78 228 218 14 45 14 172 0 218 -28 92 -82 171 -116 171 -7
0 -13 4 -13 9 0 21 -213 40 -240 21z m158 -118 c30 -15 44 -33 74 -94 11 -25
10 -195 -2 -203 -5 -3 -10 -14 -10 -25 0 -10 -16 -34 -36 -54 -34 -34 -39 -36
-105 -36 -66 0 -71 2 -104 35 -19 19 -35 41 -35 49 0 8 -4 18 -10 21 -6 3 -10
50 -10 105 0 55 4 102 10 105 6 3 10 14 10 23 0 22 65 82 90 82 10 0 22 5 26
11 8 14 57 5 102 -19z"
    />
    <path
      d="M13895 2010 c-3 -5 -15 -10 -26 -10 -59 0 -169 -120 -169 -185 0 -13
-4 -27 -10 -30 -14 -9 -11 -162 4 -215 24 -79 28 -90 37 -90 5 0 9 -7 9 -14 0
-33 88 -81 175 -96 60 -10 168 2 190 21 5 5 17 9 26 9 24 0 81 60 105 111 35
73 44 112 44 189 0 78 -9 117 -43 190 -31 64 -45 76 -150 119 -34 14 -184 15
-192 1z m130 -104 c47 -16 95 -60 95 -86 0 -10 5 -22 10 -25 6 -3 10 -48 10
-100 0 -52 -4 -97 -10 -100 -5 -3 -10 -14 -10 -25 0 -10 -16 -34 -36 -54 -34
-34 -39 -36 -105 -36 -64 0 -72 3 -104 32 -19 17 -35 39 -35 49 0 10 -4 21
-10 24 -6 3 -10 50 -10 105 0 55 4 102 10 105 6 3 10 13 10 21 0 22 66 84 89
84 11 0 23 5 26 10 8 13 22 12 70 -4z"
    />
    <path
      d="M15135 2010 c-3 -5 -17 -10 -31 -10 -13 0 -24 -4 -24 -10 0 -5 -6
-10 -13 -10 -38 0 -105 -95 -136 -191 -14 -44 -15 -196 -1 -204 6 -3 10 -17
10 -30 0 -13 5 -27 10 -30 6 -3 10 -13 10 -22 0 -19 75 -94 110 -110 53 -25
132 -34 185 -22 78 18 115 38 126 66 14 38 2 83 -22 83 -10 0 -19 -4 -19 -10
0 -5 -9 -10 -19 -10 -11 0 -23 -4 -26 -10 -11 -18 -111 -11 -152 11 -105 56
-113 287 -13 376 25 23 54 29 120 24 39 -2 90 -22 90 -33 0 -5 9 -8 20 -8 17
0 20 7 20 44 0 54 -8 76 -26 76 -8 0 -14 5 -14 10 0 6 -11 10 -24 10 -14 0
-28 5 -31 10 -3 6 -37 10 -75 10 -38 0 -72 -4 -75 -10z"
    />
    <path
      d="M15535 2013 c-11 -2 -30 -6 -43 -9 l-22 -4 2 -308 3 -307 62 -3 62
-3 3 133 3 133 95 3 c150 5 140 14 140 -138 l0 -130 60 0 60 0 0 310 0 310
-24 6 c-13 3 -38 4 -57 2 l-34 -3 -3 -122 -3 -123 -119 0 -120 0 0 118 c0 114
-1 119 -22 128 -13 6 -32 9 -43 7z"
    />
    <path
      d="M16650 1998 c-121 -58 -145 -187 -53 -284 15 -16 62 -47 105 -67 42
-21 82 -45 89 -53 19 -23 16 -78 -5 -99 -27 -27 -135 -24 -193 6 -24 12 -46
19 -49 16 -4 -4 -7 -25 -7 -49 0 -33 6 -46 27 -63 35 -28 144 -49 181 -35 14
5 40 10 56 10 23 0 43 13 85 55 54 55 54 56 54 119 0 74 -18 116 -63 148 -18
12 -33 26 -35 30 -2 4 -10 8 -17 8 -17 0 -94 40 -122 64 -32 27 -31 78 2 100
27 18 100 22 110 6 3 -5 15 -10 26 -10 10 0 19 -4 19 -10 0 -16 37 -11 44 6
10 26 7 59 -7 78 -35 47 -170 60 -247 24z"
    />
    <path
      d="M9163 2003 c-31 -6 -34 -43 -31 -353 l3 -265 60 0 60 0 3 238 c1 146
6 237 12 237 6 0 10 -11 10 -25 0 -14 5 -34 10 -45 6 -11 15 -29 20 -40 6 -11
10 -29 10 -39 0 -11 5 -23 10 -26 6 -3 10 -17 10 -30 0 -13 5 -27 10 -30 6 -3
10 -16 10 -29 0 -12 4 -26 8 -32 5 -5 19 -43 32 -84 13 -41 28 -81 33 -87 6
-8 32 -13 66 -13 51 0 57 3 69 27 6 15 12 35 12 44 0 10 4 20 8 23 4 3 14 28
22 56 8 28 18 53 22 56 4 3 8 14 8 25 0 19 4 28 28 76 7 13 12 30 12 38 0 15
4 25 28 72 7 13 12 32 12 43 0 11 4 20 10 20 6 0 11 -91 12 -237 l3 -238 57
-3 57 -3 6 33 c9 48 1 575 -8 585 -5 4 -45 8 -89 8 -77 0 -81 -1 -104 -30 -13
-16 -24 -37 -24 -45 0 -9 -4 -20 -8 -25 -4 -6 -14 -28 -21 -50 -7 -22 -17 -50
-22 -62 -12 -31 -30 -74 -40 -98 -4 -11 -15 -40 -22 -65 -15 -47 -39 -60 -45
-25 -3 20 -16 53 -33 87 -5 10 -9 26 -9 36 0 10 -4 22 -8 28 -4 5 -14 27 -21
49 -12 40 -18 56 -41 110 -26 63 -39 80 -67 86 -32 7 -107 8 -140 2z"
    />
    <path
      d="M10038 2004 c-25 -8 -29 -59 -26 -354 l3 -265 60 0 60 0 3 238 c1
146 6 237 12 237 6 0 10 -11 10 -25 0 -24 3 -33 28 -82 7 -13 12 -32 12 -42 0
-11 5 -23 10 -26 6 -3 10 -17 10 -30 0 -13 5 -27 10 -30 6 -3 10 -16 10 -29 0
-12 4 -26 8 -32 5 -5 19 -43 32 -84 13 -41 28 -81 33 -87 6 -8 32 -13 66 -13
51 0 57 3 69 27 6 15 12 35 12 44 0 10 4 20 8 23 4 3 14 28 22 56 8 28 18 53
22 56 4 3 8 14 8 25 0 10 5 28 10 39 6 11 15 29 20 40 6 11 10 27 10 35 0 8 5
24 10 35 6 11 15 29 20 40 6 11 10 29 10 40 0 11 4 20 10 20 6 0 11 -91 12
-237 l3 -238 60 0 60 0 0 302 c0 166 -4 305 -8 310 -5 4 -45 8 -89 8 -77 0
-81 -1 -104 -30 -13 -16 -24 -37 -24 -45 0 -9 -4 -20 -8 -25 -4 -6 -14 -28
-21 -50 -7 -22 -17 -51 -23 -65 -6 -14 -15 -36 -21 -50 -5 -14 -13 -33 -18
-42 -5 -10 -9 -25 -9 -33 0 -8 -4 -23 -9 -33 -5 -9 -12 -25 -15 -35 -7 -23
-30 -17 -34 9 -3 19 -16 52 -33 86 -5 10 -9 25 -9 33 0 15 -4 25 -28 72 -7 13
-12 31 -12 41 0 10 -4 22 -8 28 -5 5 -14 27 -21 49 -24 75 -38 86 -122 90 -40
2 -82 2 -91 -1z"
    />
    <path
      d="M10901 2001 c-20 -13 -12 -475 9 -511 23 -39 88 -99 113 -104 12 -2
46 -9 75 -15 37 -8 68 -8 105 0 100 20 143 49 176 120 20 43 21 58 19 280 l-3
234 -34 3 c-19 2 -44 1 -57 -2 l-24 -6 0 -210 c0 -220 -4 -244 -47 -287 -32
-33 -127 -33 -163 0 -48 43 -50 54 -50 281 0 237 3 226 -68 226 -20 0 -43 -4
-51 -9z"
    />
    <path
      d="M11578 2004 c-26 -8 -29 -46 -26 -344 l3 -275 53 -3 52 -3 0 230 c0
127 3 231 8 231 8 0 32 -48 32 -66 0 -7 3 -14 8 -16 6 -3 25 -37 114 -208 12
-25 26 -46 31 -48 4 -2 7 -12 7 -23 0 -10 5 -19 10 -19 6 0 10 -6 10 -12 0 -7
11 -25 24 -40 21 -25 30 -28 89 -28 61 0 67 2 72 23 3 12 4 153 3 312 l-3 290
-29 3 c-15 2 -39 1 -52 -2 l-24 -6 0 -210 c0 -116 -3 -210 -7 -210 -5 0 -25
35 -46 78 -55 113 -111 217 -119 220 -5 2 -8 12 -8 23 0 10 -4 19 -10 19 -5 0
-10 6 -10 13 0 6 -10 25 -23 40 -19 24 -31 29 -82 32 -33 2 -68 2 -77 -1z"
    />
    <path
      d="M12222 2002 c-9 -7 -12 -76 -10 -313 l3 -304 63 -3 62 -3 0 309 c0
344 5 322 -68 322 -20 0 -43 -4 -50 -8z"
    />
    <path
      d="M12410 1991 c-13 -26 -12 -52 4 -73 11 -14 29 -18 89 -18 l77 0 2
-257 3 -258 65 0 65 0 3 258 2 257 79 0 c84 0 91 4 91 55 0 57 7 55 -241 55
-215 0 -229 -1 -239 -19z"
    />
    <path
      d="M12927 2004 c-14 -15 -6 -43 41 -135 27 -52 53 -103 60 -114 6 -11
25 -49 42 -84 28 -60 30 -73 30 -178 l0 -113 60 0 60 0 0 120 c0 73 4 120 10
120 6 0 10 6 10 14 0 17 42 100 53 104 4 2 7 12 7 23 0 10 5 19 10 19 6 0 10
9 10 20 0 11 5 20 10 20 6 0 10 9 10 20 0 11 5 20 10 20 6 0 10 9 10 20 0 11
5 20 10 20 6 0 10 9 10 19 0 11 4 21 9 23 5 2 11 17 13 33 3 30 2 30 -51 33
-58 3 -91 -15 -91 -50 0 -10 -4 -18 -10 -18 -5 0 -10 -6 -10 -13 0 -12 -29
-80 -50 -119 -6 -10 -10 -27 -10 -38 0 -11 -4 -20 -8 -20 -9 0 -13 7 -62 115
-66 148 -59 140 -121 143 -30 2 -58 0 -62 -4z"
    />
    <path
      d="M14407 1996 c-16 -16 -17 -44 -15 -314 l3 -297 63 -3 62 -3 0 126 c0
103 3 127 15 131 16 7 73 -13 90 -31 13 -14 55 -94 55 -106 0 -6 9 -29 20 -51
11 -23 20 -48 20 -55 0 -9 19 -13 70 -13 80 0 82 3 49 78 -51 114 -84 178
-103 195 -10 9 -17 18 -15 20 52 36 79 61 79 73 0 7 5 14 10 14 14 0 13 126
-1 152 -14 26 -47 58 -78 76 -14 8 -76 16 -165 19 -126 5 -144 4 -159 -11z
m261 -112 c24 -24 22 -110 -3 -128 -21 -15 -120 -30 -136 -21 -11 7 -12 158
-1 169 12 13 122 -3 140 -20z"
    />
    <path
      d="M16126 1995 c-14 -14 -16 -53 -16 -293 0 -152 3 -287 6 -299 6 -23 8
-23 185 -23 l179 0 0 50 0 50 -120 0 -121 0 3 88 3 87 97 3 c93 3 96 4 102 27
4 14 4 36 0 50 -6 25 -8 25 -106 25 l-99 0 3 73 3 72 115 5 115 5 0 45 0 45
-167 3 c-141 2 -168 0 -182 -13z"
    />
    <path
      d="M16990 1991 c-13 -26 -12 -52 4 -73 11 -14 29 -18 89 -18 l77 0 2
-257 3 -258 65 0 65 0 3 258 2 257 79 0 c84 0 91 4 91 55 0 57 7 55 -241 55
-215 0 -229 -1 -239 -19z"
    />
    <path
      d="M17567 1995 c-16 -15 -17 -44 -15 -313 l3 -297 63 -3 62 -3 0 131 c0
122 1 130 20 130 22 0 70 -20 85 -35 13 -13 55 -94 55 -106 0 -6 9 -29 20 -51
11 -23 20 -48 20 -55 0 -9 19 -13 70 -13 80 0 82 3 49 78 -51 114 -84 178
-103 195 -10 9 -17 18 -15 20 52 36 79 61 79 73 0 7 5 14 10 14 6 0 10 31 10
73 0 69 -2 75 -32 108 -50 52 -79 61 -228 67 -120 4 -138 3 -153 -13z m261
-111 c24 -24 22 -110 -4 -128 -21 -16 -118 -31 -134 -21 -11 7 -14 158 -2 169
12 13 122 -3 140 -20z"
    />
    <path
      d="M18265 1994 c-9 -9 -19 -29 -22 -45 -3 -16 -10 -32 -14 -35 -5 -3 -9
-16 -9 -29 0 -13 -4 -27 -10 -30 -5 -3 -10 -17 -10 -30 0 -13 -4 -27 -10 -30
-5 -3 -10 -17 -10 -31 0 -13 -4 -24 -10 -24 -5 0 -10 -11 -10 -24 0 -14 -4
-28 -10 -31 -5 -3 -10 -17 -10 -30 0 -13 -4 -27 -10 -30 -5 -3 -10 -15 -10
-26 0 -10 -4 -28 -10 -39 -5 -11 -14 -29 -20 -40 -5 -11 -10 -29 -10 -39 0
-11 -4 -23 -10 -26 -5 -3 -10 -22 -10 -41 l0 -34 60 0 c53 0 60 2 60 19 0 11
5 23 10 26 6 3 10 15 10 25 0 11 5 31 12 45 11 25 13 25 128 25 l117 0 13 -42
c31 -101 27 -98 102 -98 38 0 68 3 68 7 0 15 -34 111 -51 145 -5 10 -9 27 -9
37 0 11 -4 23 -10 26 -5 3 -10 17 -10 30 0 13 -4 26 -8 29 -4 3 -14 28 -22 56
-8 28 -18 53 -22 56 -4 3 -8 16 -8 29 0 13 -4 27 -10 30 -5 3 -10 16 -10 29 0
12 -4 26 -8 32 -5 5 -15 29 -22 54 -8 25 -18 51 -23 58 -15 19 -142 16 -162
-4z m89 -146 c2 -7 17 -56 35 -110 17 -53 31 -101 31 -107 0 -7 -29 -11 -80
-11 l-80 0 0 29 c0 17 5 33 10 36 6 3 10 17 10 30 0 13 5 27 10 30 6 3 10 17
10 30 0 13 5 27 10 30 6 3 10 17 10 31 0 25 28 35 34 12z"
    />
  </g>
</svg>
